<?xml version="1.0" encoding="utf-8"?>
<!-- Generator: Adobe Illustrator 13.0.2, SVG Export Plug-In . SVG Version: 6.00 Build 14948)  -->
<!DOCTYPE svg PUBLIC "-//W3C//DTD SVG 1.1//EN" "http://www.w3.org/Graphics/SVG/1.1/DTD/svg11.dtd">
<svg version="1.1" id="Layer_1" xmlns="http://www.w3.org/2000/svg" xmlns:xlink="http://www.w3.org/1999/xlink" x="0px" y="0px"
	 width="719.998px" height="496.057px" viewBox="0 0 719.998 496.057" enable-background="new 0 0 719.998 496.057"
	 xml:space="preserve">
<g>
	<path fill="#000031" d="M360.006,23.15c184.713,0,334.451,100.633,334.451,224.771c0,124.141-149.738,224.775-334.451,224.775
		S25.555,372.062,25.555,247.922C25.555,123.783,175.293,23.15,360.006,23.15"/>
	<path fill="#000031" d="M358.42,23.15c186.559,0,337.793,100.633,337.793,224.771c0,124.141-151.234,224.775-337.793,224.775
		c-186.561,0-337.797-100.635-337.797-224.775C20.623,123.783,171.859,23.15,358.42,23.15"/>
	<path fill="#ADAEC3" d="M359.998,11.812c192.104,0,347.828,107.113,347.828,236.217S552.102,484.244,359.998,484.244
		c-192.098,0-347.826-107.111-347.826-236.215S167.9,11.812,359.998,11.812 M359.998,23.391c-45.807,0-90.271,6.156-132.166,18.295
		c-40.191,11.648-76.281,28.266-107.26,49.387c-30.588,20.855-54.557,44.984-71.242,71.713
		c-16.971,27.189-25.576,55.869-25.576,85.244c0,29.373,8.605,58.055,25.576,85.242c16.686,26.729,40.654,50.855,71.242,71.713
		c30.979,21.123,67.068,37.74,107.26,49.387c41.895,12.139,86.359,18.295,132.166,18.295s90.275-6.156,132.17-18.295
		c40.189-11.646,76.277-28.264,107.26-49.387c30.59-20.857,54.557-44.984,71.24-71.713c16.971-27.188,25.58-55.869,25.58-85.242
		c0-29.375-8.609-58.055-25.58-85.244c-16.684-26.729-40.65-50.857-71.24-71.713c-30.982-21.121-67.07-37.738-107.26-49.387
		C450.273,29.547,405.805,23.391,359.998,23.391"/>
	<path fill="#FFFFFF" d="M359.998,0c198.826,0,360,112.469,360,248.029s-161.174,248.027-360,248.027
		C161.174,496.057,0,383.59,0,248.029S161.174,0,359.998,0 M359.998,12.07c-47.385,0-93.383,6.459-136.725,19.203
		c-41.578,12.223-78.912,29.664-110.967,51.834c-31.654,21.895-56.463,47.232-73.736,75.301
		c-17.584,28.58-26.498,58.734-26.498,89.621c0,30.885,8.914,61.039,26.498,89.617c17.273,28.07,42.082,53.406,73.736,75.303
		c32.055,22.17,69.389,39.609,110.967,51.834c43.342,12.742,89.34,19.201,136.725,19.201s93.387-6.459,136.725-19.201
		c41.582-12.225,78.916-29.664,110.969-51.834c31.658-21.896,56.465-47.232,73.738-75.303c17.582-28.578,26.498-58.73,26.498-89.617
		s-8.916-61.041-26.498-89.621c-17.273-28.068-42.08-53.406-73.738-75.301c-32.053-22.17-69.387-39.611-110.969-51.834
		C453.385,18.529,407.383,12.07,359.998,12.07"/>
	<polygon fill="#FFFFFF" points="358.854,86.67 290.184,115.215 264.871,115.215 264.871,125.715 249.254,132.35 255.176,139.719 
		260.293,139.719 260.293,165.033 239.02,165.033 239.02,149.684 220.707,149.684 220.707,165.303 92.258,165.303 94.682,167.188 
		94.682,187.385 90.102,187.385 94.412,192.23 94.412,312.6 90.102,312.6 90.102,323.912 250.332,323.912 250.332,327.146 
		465.762,327.146 465.762,323.104 627.334,323.104 627.334,312.873 623.836,312.873 623.836,191.691 627.607,187.654 
		624.105,187.654 624.105,167.994 626.527,164.225 496.459,164.225 496.459,149.684 478.416,149.684 478.416,163.414 
		457.949,163.414 457.949,140.256 462.26,140.256 467.695,133.182 452.566,125.18 452.566,115.215 427.793,115.215 	"/>
	<path fill-rule="evenodd" clip-rule="evenodd" fill="#FFFFFF" d="M286.252,403.4c0.205-0.234,0.178-0.885-0.086-1.029
		c-0.826,0.059-1.678,0.086-2.711,0.086c-0.885,0-2.062-0.027-3.006-0.086c-0.268,0.145-0.326,0.764-0.088,1.029l0.646,0.178
		c0.385,0.086,0.561,0.205,0.561,0.41c0,0.328-0.59,2.004-0.795,2.504c-1.412,3.596-2.801,7.248-4.213,10.666
		c-0.176-0.414-0.59-1.236-1.295-2.885l-1.389-2.977c-0.205-0.473-0.234-0.652-0.234-0.738c0-0.145,0.387-1.002,0.648-1.531
		c0.383-0.766,1.121-2.123,1.826-3.328c1.035-1.77,1.24-1.889,2.242-2.094l0.82-0.176c0.27-0.207,0.209-0.914-0.025-1.059
		c-0.768,0.059-1.857,0.086-3.004,0.086c-0.973,0-2.039-0.027-2.889-0.086c-0.266,0.145-0.297,0.82-0.088,1.029l0.881,0.205
		c0.473,0.119,0.59,0.205,0.59,0.414c0,0.178-0.268,1.061-0.797,2.18l-0.262,0.592c-0.295,0.646-0.59,1.234-0.887,1.854
		c-0.266-0.533-0.559-1.18-0.824-1.795l-0.883-2.037c-0.115-0.324-0.266-0.648-0.266-0.883c0-0.205,0.441-0.352,0.799-0.414
		l0.5-0.115c0.201-0.146,0.234-0.943-0.117-1.029c-0.768,0.059-1.887,0.086-3.391,0.086c-1.297,0-2.447-0.027-3.711-0.086
		c-0.324,0.113-0.381,0.795-0.09,1.029l0.295,0.029c1.121,0.148,1.326,0.324,2.002,1.797l2.83,6.217
		c0.117,0.295,0.178,0.619,0.178,0.795s-0.178,0.824-0.383,1.297l-0.383,0.855c-0.592,1.322-1.062,2.209-1.416,2.854
		c-0.354-0.705-0.648-1.322-1.473-3.15l-2.916-6.512c-0.943-2.062-1.531-3.447-1.531-3.652s0.205-0.352,0.736-0.443l0.529-0.086
		c0.297-0.178,0.178-0.916-0.059-1.029c-1.121,0.059-2.27,0.086-3.564,0.086c-1.504,0-2.738-0.027-3.83-0.086
		c-0.324,0.145-0.354,0.734-0.115,1.029l0.734,0.148c0.973,0.146,1.178,0.32,1.945,2.09l4.83,10.547
		c1.002,2.209,2.178,4.859,2.652,6.096c0.266,0.152,0.439,0.238,0.764,0.238c0.443,0,0.826-0.086,0.977-0.238
		c0.469-0.969,0.764-1.822,1.234-2.768l1.385-3.004c0.383-0.824,0.738-1.531,1.002-2.031c0.266,0.441,0.645,1.326,1.059,2.266
		l1.234,2.799c0.387,0.826,0.801,1.889,1.125,2.594c0.205,0.145,0.469,0.234,0.793,0.234c0.385,0,0.799-0.09,0.973-0.234
		c1.447-3.828,4.742-11.168,6.217-14.611c0.764-1.859,1.297-2.799,1.619-3.271c0.209-0.266,0.533-0.471,1.209-0.648L286.252,403.4z"
		/>
	<path fill-rule="evenodd" clip-rule="evenodd" fill="#FFFFFF" d="M292.334,415.242c1.029,0,1.268,0.061,1.414,0.527l0.793,2.537
		c0.357,1.092,0.562,1.797,0.562,2.002c0,0.178-0.119,0.383-0.797,0.502l-0.943,0.148c-0.322,0.234-0.264,0.854,0.061,1.031
		c1.355-0.059,2.504-0.092,3.977-0.092c1.531,0,3.125,0.033,4.537,0.092c0.266-0.178,0.205-0.885,0.029-1.031l-1.117-0.178
		c-1.092-0.205-1.357-0.854-1.975-2.619l-4.006-11.551c-0.74-2.092-1.092-3.182-1.326-4.037c-0.119-0.443-0.295-0.59-0.68-0.59
		c-0.059,0-1.146,1.445-2.562,1.77c0.09,0.857-0.441,1.887-1.148,3.738l-2.652,7.189c-0.797,2.123-1.297,3.539-1.826,4.717
		c-0.473,1.148-1.088,1.383-1.797,1.471l-0.795,0.09c-0.207,0.234-0.236,0.854,0.086,1.031c1.357,0,2.033-0.092,3.035-0.092
		c1.24,0.033,2.414,0.033,3.447,0.092c0.297-0.15,0.234-0.826,0.059-1.031l-0.883-0.148c-0.824-0.146-1.061-0.324-1.061-0.502
		c0-0.232,0.027-0.471,0.205-1.059l1.09-3.418c0.176-0.559,0.268-0.59,0.973-0.59H292.334z M289.623,413.682
		c-0.738,0-0.914-0.09-0.619-0.883l0.738-2.213c0.439-1.354,0.91-2.59,1.207-3.238c0.264,0.617,0.646,1.826,1.061,3.096l0.766,2.383
		c0.266,0.766,0.088,0.855-0.59,0.855H289.623z"/>
	<path fill-rule="evenodd" clip-rule="evenodd" fill="#FFFFFF" d="M316.99,416.393c0-3.242-2.326-4.949-4.152-5.924l-1.941-1.029
		c-1.477-0.768-2.684-2.004-2.684-3.357c0-1.475,1.062-2.74,3.004-2.74c2.121,0,3.385,2.15,3.891,3.654
		c0.266,0.293,1.002,0.264,1.148-0.09c0-1.975-0.295-3.564-0.529-4.215c-0.354-0.057-0.619-0.115-1.002-0.234
		c-1.182-0.354-2.389-0.473-3.359-0.473c-4.27,0-6.834,2.301-6.834,5.629c0.027,2.918,2.326,4.684,4.447,5.744
		c1.77,0.885,4.006,2.301,4.006,4.684c0,1.475-1,2.977-3.18,2.977c-2.504,0-4.479-2.713-5.068-4.625
		c-0.236-0.324-0.916-0.297-1.117,0.09c0,2,0.381,4.121,0.939,4.77c0.619,0.357,2.299,1.119,5.008,1.119
		C314.016,422.371,316.99,420.016,316.99,416.393"/>
	<path fill-rule="evenodd" clip-rule="evenodd" fill="#FFFFFF" d="M334.26,412.562c1.236,0,1.236,0.029,1.236,0.854v4.244
		c0,2.736-0.148,2.943-1.502,3.211l-0.648,0.086c-0.238,0.18-0.238,0.857,0,1.033c1.412-0.061,2.857-0.09,4.33-0.09
		c1.354,0,2.799,0.029,4.271,0.09c0.236-0.176,0.236-0.854,0-1.033l-0.709-0.117c-1.354-0.236-1.527-0.443-1.527-3.18v-10.959
		c0-2.74,0.174-2.947,1.527-3.213l0.59-0.088c0.236-0.176,0.236-0.852,0-1.029c-1.354,0.059-2.707,0.086-4.152,0.086
		c-1.416,0-2.857-0.027-4.479-0.086c-0.232,0.178-0.232,0.854,0,1.029l0.797,0.115c1.354,0.238,1.502,0.445,1.502,3.186v3.416
		c0,0.854,0,0.883-1.236,0.883h-6.131c-1.207,0-1.234-0.029-1.234-0.883v-3.416c0-2.74,0.176-2.947,1.443-3.213l0.617-0.088
		c0.236-0.176,0.236-0.852,0-1.029c-1.299,0.059-2.771,0.086-4.092,0.086c-1.418,0-2.947-0.027-4.393-0.086
		c-0.234,0.178-0.234,0.854,0,1.029l0.705,0.088c1.326,0.266,1.506,0.473,1.506,3.213v10.959c0,2.736-0.18,2.943-1.506,3.211
		l-0.705,0.086c-0.234,0.18-0.234,0.857,0,1.033c1.502-0.061,2.975-0.09,4.393-0.09c1.32,0,2.793,0.029,4.473,0.09
		c0.238-0.176,0.238-0.854,0-1.033l-0.941-0.117c-1.324-0.236-1.5-0.443-1.5-3.18v-4.244c0-0.824,0.027-0.854,1.234-0.854H334.26z"
		/>
	<path fill-rule="evenodd" clip-rule="evenodd" fill="#FFFFFF" d="M353.883,406.758c0-2.768,0.176-2.977,1.531-3.209l0.824-0.148
		c0.238-0.178,0.238-0.854,0-1.031c-1.592,0.059-3.066,0.088-4.445,0.088c-1.416,0-2.889-0.029-4.48-0.088
		c-0.236,0.178-0.236,0.854,0,1.031l0.824,0.148c1.354,0.232,1.531,0.441,1.531,3.209v10.844c0,2.766-0.178,2.975-1.531,3.209
		l-0.824,0.148c-0.236,0.176-0.236,0.854,0,1.031c1.592-0.059,3.064-0.092,4.48-0.092c1.379,0,2.824,0.033,4.416,0.092
		c0.234-0.178,0.268-0.855,0.029-1.031l-0.824-0.148c-1.355-0.234-1.531-0.443-1.531-3.209V406.758z"/>
	<path fill-rule="evenodd" clip-rule="evenodd" fill="#FFFFFF" d="M379.689,409.852c0-2.387,0.117-4.596,0.443-5.391
		c0.262-0.621,0.822-0.797,1.588-0.975l0.531-0.086c0.236-0.234,0.176-0.854,0-1.031c-1.15,0.059-2.213,0.088-3.297,0.088
		c-1.211,0-2.361-0.029-3.949-0.088c-0.182,0.178-0.236,0.797,0,1.031l0.795,0.115c0.793,0.148,1.439,0.324,1.709,0.945
		c0.322,0.795,0.441,3.004,0.441,5.391v4.064c0,0.533,0,1.035-0.119,1.326c-0.676-0.678-1.5-1.709-2.826-3.242l-2.477-2.914
		c-2.652-3.152-4.564-5.391-4.859-6.717c-0.621,0.059-1.473,0.088-2.477,0.088c-1.207,0-2.678-0.029-4.066-0.088
		c-0.293,0.088-0.324,0.797-0.119,1.031l0.826,0.115c1.033,0.209,1.477,0.504,1.682,1.006c0.205,0.41,0.205,0.883,0.205,2.502v7.484
		c0,2.385-0.119,4.594-0.41,5.389c-0.268,0.619-0.828,0.795-1.621,0.973l-0.504,0.09c-0.232,0.234-0.178,0.854,0,1.031
		c1.125-0.059,2.211-0.092,3.303-0.092c1.178,0,2.357,0.033,3.949,0.092c0.176-0.178,0.232-0.797,0-1.031l-0.83-0.119
		c-0.762-0.148-1.439-0.324-1.703-0.943c-0.328-0.795-0.443-3.004-0.443-5.389v-5.715c0-1.092,0-1.592,0.143-1.889
		c0.531,0.445,1.537,1.65,3.213,3.773l6.807,8.424c1.385,1.709,2.357,3.213,2.385,3.213c0.705,0,1.533-0.324,1.736-0.678
		c-0.055-0.973-0.055-2.828-0.055-4.744V409.852z"/>
	<path fill-rule="evenodd" clip-rule="evenodd" fill="#FFFFFF" d="M403.525,416.924c0-1.592,0.176-1.855,1.062-2.033l0.674-0.117
		c0.238-0.178,0.238-0.854,0-1.031c-1.004,0.059-2.441,0.086-3.859,0.086c-1.445,0-2.887-0.027-4.975-0.086
		c-0.328,0.178-0.328,0.854,0,1.031l1.291,0.176c1.418,0.205,1.59,0.383,1.59,1.975v1.854c0,1.914-0.348,2.238-2.031,2.238
		c-1.092,0-2.617-0.174-4.035-1.117c-1.912-1.297-3.357-3.805-3.357-8.016c0-4.65,2.27-8.541,6.953-8.541
		c2.736,0,4.594,1.383,5.537,4.154c0.207,0.295,1.002,0.264,1.121-0.059c-0.297-1.797-0.326-3.861-0.414-4.744
		c-0.945,0-2.562-0.709-5.83-0.709c-2.508,0-4.893,0.471-6.898,1.564c-3.531,1.973-5.182,5.213-5.182,8.896
		c0,4.244,2.357,7.512,5.801,8.895c2.096,0.824,3.801,1.031,5.803,1.031c1.656,0,4.188-0.383,5.217-0.703
		c0.793-0.266,1.564-0.357,2.062-0.443c0.176-0.086,0.203-0.592,0.088-0.707c-0.559-0.121-0.617-0.709-0.617-1.945V416.924z"/>
	<path fill-rule="evenodd" clip-rule="evenodd" fill="#FFFFFF" d="M412.541,417.658c0,2.738-0.176,2.947-1.502,3.152l-1.33,0.148
		c-0.23,0.174-0.23,0.854,0,1.029c2.066-0.059,3.6-0.086,5.014-0.086c1.326,0,2.799,0.027,4.711,0.086
		c0.207-0.176,0.207-0.855,0-1.029l-1.18-0.148c-1.324-0.205-1.5-0.414-1.5-3.152v-12.99c0-0.764,0.09-0.854,0.795-0.854h1.77
		c2.205,0,2.619,1.383,3.125,3.266c0.145,0.238,0.939,0.178,1.084-0.086c-0.057-1.682,0.15-4.064,0.445-5.064
		c-0.061-0.09-0.266-0.209-0.445-0.209c-0.176,0-0.26,0.029-0.379,0.09c-0.27,0.619-0.705,0.645-2.652,0.645h-10.959
		c-2.244,0-2.326-0.113-2.473-0.615c-0.119-0.09-0.268-0.119-0.414-0.119c-0.15,0-0.299,0.059-0.414,0.146
		c-0.207,1.15-0.352,2.977-0.973,5.008c0.18,0.383,0.738,0.443,1.088,0.268c0.889-2.154,1.506-3.328,3.656-3.328h1.824
		c0.709,0,0.709,0.146,0.709,0.854V417.658z"/>
	<path fill-rule="evenodd" clip-rule="evenodd" fill="#FFFFFF" d="M434.363,401.986c-6.156,0-10.514,4.506-10.514,10.338
		c0,6.158,4.301,10.047,10.223,10.047c6.332,0,10.633-3.859,10.633-10.279C444.705,406.111,440.492,401.986,434.363,401.986
		 M439.99,412.475c0,4.771-1.498,8.539-5.359,8.539c-4.803,0-6.068-5.773-6.068-9.365c0-4.92,1.943-8.307,5.566-8.307
		C437.781,403.342,439.99,407.436,439.99,412.475"/>
	<path fill-rule="evenodd" clip-rule="evenodd" fill="#FFFFFF" d="M465.098,409.852c0-2.387,0.119-4.596,0.441-5.391
		c0.264-0.621,0.82-0.797,1.59-0.975l0.529-0.086c0.238-0.234,0.178-0.854,0-1.031c-1.15,0.059-2.207,0.088-3.299,0.088
		c-1.209,0-2.357-0.029-3.949-0.088c-0.172,0.178-0.232,0.797,0,1.031l0.799,0.115c0.793,0.148,1.443,0.324,1.709,0.945
		c0.322,0.795,0.441,3.004,0.441,5.391v4.064c0,0.533,0,1.035-0.119,1.326c-0.676-0.678-1.5-1.709-2.83-3.242l-2.473-2.914
		c-2.648-3.152-4.568-5.391-4.863-6.717c-0.617,0.059-1.469,0.088-2.469,0.088c-1.211,0-2.684-0.029-4.068-0.088
		c-0.295,0.088-0.324,0.797-0.117,1.031l0.822,0.115c1.031,0.209,1.477,0.504,1.684,1.006c0.205,0.41,0.205,0.883,0.205,2.502v7.484
		c0,2.385-0.119,4.594-0.412,5.389c-0.268,0.619-0.826,0.795-1.621,0.973l-0.498,0.09c-0.238,0.234-0.18,0.854,0,1.031
		c1.119-0.059,2.203-0.092,3.297-0.092c1.18,0,2.357,0.033,3.947,0.092c0.176-0.178,0.238-0.797,0-1.031l-0.824-0.119
		c-0.766-0.148-1.443-0.324-1.713-0.943c-0.322-0.795-0.438-3.004-0.438-5.389v-5.715c0-1.092,0-1.592,0.146-1.889
		c0.529,0.445,1.529,1.65,3.213,3.773l6.803,8.424c1.383,1.709,2.357,3.213,2.385,3.213c0.709,0,1.531-0.324,1.736-0.678
		c-0.055-0.973-0.055-2.828-0.055-4.744V409.852z"/>
	<path fill-rule="evenodd" clip-rule="evenodd" fill="#FFFFFF" d="M146.395,371.324c0,4.109-0.262,4.418-2.252,4.727l-1.992,0.223
		c-0.352,0.264-0.352,1.281,0,1.545c3.096-0.086,5.395-0.131,7.516-0.131c1.988,0,4.199,0.045,7.068,0.131
		c0.311-0.264,0.311-1.281,0-1.545l-1.766-0.223c-1.99-0.309-2.256-0.617-2.256-4.727v-19.486c0-1.15,0.135-1.285,1.193-1.285h2.652
		c3.314,0,3.932,2.082,4.686,4.906c0.219,0.355,1.416,0.27,1.633-0.133c-0.086-2.52,0.223-6.096,0.666-7.602
		c-0.09-0.131-0.402-0.307-0.666-0.307c-0.266,0-0.396,0.043-0.572,0.135c-0.398,0.928-1.061,0.969-3.979,0.969h-16.438
		c-3.357,0-3.492-0.176-3.711-0.928c-0.178-0.133-0.4-0.176-0.619-0.176c-0.223,0-0.439,0.09-0.621,0.221
		c-0.307,1.725-0.527,4.465-1.455,7.512c0.264,0.578,1.104,0.664,1.637,0.396c1.322-3.225,2.25-4.994,5.475-4.994h2.738
		c1.062,0,1.062,0.223,1.062,1.285V371.324z"/>
	<path fill-rule="evenodd" clip-rule="evenodd" fill="#FFFFFF" d="M186.469,363.68c1.855,0,1.855,0.045,1.855,1.279v6.367
		c0,4.107-0.221,4.416-2.254,4.814l-0.975,0.131c-0.352,0.266-0.352,1.285,0,1.549c2.123-0.088,4.291-0.133,6.5-0.133
		c2.031,0,4.197,0.045,6.404,0.133c0.357-0.264,0.357-1.283,0-1.549l-1.057-0.176c-2.033-0.354-2.301-0.662-2.301-4.77v-16.441
		c0-4.109,0.268-4.416,2.301-4.814l0.885-0.133c0.354-0.266,0.354-1.281,0-1.549c-2.035,0.088-4.066,0.133-6.232,0.133
		c-2.119,0-4.287-0.045-6.717-0.133c-0.354,0.268-0.354,1.283,0,1.549l1.191,0.176c2.033,0.355,2.254,0.662,2.254,4.771v5.125
		c0,1.285,0,1.326-1.855,1.326h-9.191c-1.811,0-1.854-0.041-1.854-1.326v-5.125c0-4.109,0.262-4.416,2.162-4.814l0.928-0.133
		c0.355-0.266,0.355-1.281,0-1.549c-1.941,0.088-4.154,0.133-6.141,0.133c-2.123,0-4.418-0.045-6.584-0.133
		c-0.357,0.268-0.357,1.283,0,1.549l1.061,0.133c1.988,0.398,2.252,0.705,2.252,4.814v16.441c0,4.107-0.264,4.416-2.252,4.814
		l-1.061,0.131c-0.357,0.266-0.357,1.285,0,1.549c2.254-0.088,4.461-0.133,6.584-0.133c1.986,0,4.199,0.045,6.719,0.133
		c0.35-0.264,0.35-1.283,0-1.549l-1.416-0.176c-1.99-0.354-2.252-0.662-2.252-4.77v-6.367c0-1.234,0.043-1.279,1.854-1.279H186.469z
		"/>
	<path fill-rule="evenodd" clip-rule="evenodd" fill="#FFFFFF" d="M213.252,352.277c0-1.635,0-1.723,1.457-1.723h3.535
		c2.168,0,3.49,0.533,4.332,1.369c0.574,0.619,1.193,1.945,1.678,3.494c0.439,0.396,1.457,0.307,1.639-0.178
		c-0.225-2.963-0.533-6.145-0.58-6.852c-0.572,0.088-3.09,0.133-5.918,0.133h-9.369c-2.123,0-4.285-0.045-6.363-0.133
		c-0.439,0.268-0.484,1.283-0.09,1.549l1.105,0.221c1.988,0.354,2.256,0.662,2.256,4.684v16.482c0,4.064-0.268,4.373-2.256,4.641
		l-2.074,0.309c-0.357,0.221-0.357,1.281,0,1.545c3.312-0.086,5.48-0.131,7.598-0.131h5.746c3.623,0,7.865,0.045,10.207,0.131
		c0.617-1.189,1.68-4.77,1.855-7.066c-0.176-0.533-1.281-0.711-1.637-0.223c-2.43,4.99-3.932,5.125-7.777,5.125
		c-3.223,0-4.061-0.352-4.639-1.15c-0.531-0.748-0.705-2.166-0.705-4.197v-5.256c0-1.326,0.043-1.371,1.234-1.371h3.051
		c2.297,0,2.785,0.352,3.27,2.475l0.225,1.104c0.307,0.398,1.41,0.354,1.631-0.045c-0.086-1.412-0.131-3.004-0.131-4.684
		c0-1.678,0.045-3.268,0.131-4.682c-0.221-0.398-1.324-0.398-1.631-0.047l-0.225,1.105c-0.484,2.121-0.973,2.43-3.27,2.43h-3.051
		c-1.191,0-1.234-0.086-1.234-1.326V352.277z"/>
	<path fill-rule="evenodd" clip-rule="evenodd" fill="#FFFFFF" d="M293.723,349.938c0.311-0.354,0.266-1.326-0.133-1.549
		c-1.238,0.088-2.52,0.133-4.066,0.133c-1.322,0-3.092-0.045-4.506-0.133c-0.395,0.223-0.486,1.15-0.133,1.549l0.969,0.262
		c0.578,0.137,0.842,0.312,0.842,0.621c0,0.488-0.883,3.004-1.191,3.756c-2.121,5.393-4.199,10.871-6.32,15.998
		c-0.268-0.619-0.887-1.855-1.945-4.33l-2.076-4.465c-0.309-0.707-0.354-0.973-0.354-1.105c0-0.221,0.576-1.5,0.975-2.297
		c0.572-1.15,1.678-3.182,2.736-4.996c1.547-2.65,1.857-2.826,3.357-3.135l1.238-0.268c0.398-0.307,0.309-1.367-0.041-1.59
		c-1.152,0.088-2.785,0.133-4.51,0.133c-1.457,0-3.045-0.045-4.33-0.133c-0.398,0.223-0.443,1.238-0.133,1.549l1.326,0.309
		c0.711,0.176,0.883,0.309,0.883,0.619c0,0.266-0.398,1.592-1.193,3.27l-0.398,0.885c-0.439,0.973-0.883,1.854-1.324,2.781
		c-0.396-0.795-0.84-1.764-1.238-2.695l-1.326-3.051c-0.174-0.484-0.396-0.967-0.396-1.324c0-0.309,0.66-0.531,1.193-0.617
		l0.752-0.176c0.311-0.223,0.354-1.416-0.176-1.549c-1.15,0.088-2.828,0.133-5.086,0.133c-1.941,0-3.662-0.045-5.564-0.133
		c-0.486,0.178-0.576,1.195-0.133,1.549l0.439,0.041c1.682,0.221,1.99,0.488,3.008,2.695l4.244,9.326
		c0.172,0.439,0.264,0.932,0.264,1.195s-0.264,1.234-0.576,1.945l-0.574,1.279c-0.883,1.988-1.588,3.314-2.121,4.285
		c-0.529-1.059-0.971-1.986-2.209-4.729l-4.375-9.768c-1.416-3.09-2.299-5.168-2.299-5.479c0-0.309,0.312-0.531,1.104-0.66
		l0.797-0.133c0.441-0.266,0.268-1.371-0.086-1.549c-1.682,0.088-3.406,0.133-5.348,0.133c-2.254,0-4.107-0.045-5.746-0.133
		c-0.484,0.223-0.529,1.105-0.176,1.549l1.104,0.221c1.457,0.219,1.77,0.484,2.918,3.137l7.248,15.818
		c1.504,3.316,3.268,7.293,3.973,9.148c0.398,0.221,0.664,0.354,1.15,0.354c0.666,0,1.238-0.133,1.457-0.354
		c0.709-1.457,1.152-2.742,1.859-4.154l2.076-4.506c0.574-1.238,1.105-2.299,1.502-3.049c0.398,0.66,0.973,1.986,1.594,3.402
		l1.854,4.199c0.572,1.234,1.191,2.826,1.68,3.889c0.309,0.219,0.709,0.354,1.189,0.354c0.576,0,1.195-0.135,1.461-0.354
		c2.164-5.744,7.113-16.75,9.322-21.92c1.15-2.787,1.945-4.199,2.43-4.904c0.316-0.398,0.797-0.707,1.816-0.973L293.723,349.938z"/>
	<path fill-rule="evenodd" clip-rule="evenodd" fill="#FFFFFF" d="M313.893,363.68c1.854,0,1.854,0.045,1.854,1.279v6.367
		c0,4.107-0.217,4.416-2.252,4.814l-0.973,0.131c-0.354,0.266-0.354,1.285,0,1.549c2.121-0.088,4.287-0.133,6.496-0.133
		c2.033,0,4.199,0.045,6.408,0.133c0.352-0.264,0.352-1.283,0-1.549l-1.061-0.176c-2.031-0.354-2.297-0.662-2.297-4.77v-16.441
		c0-4.109,0.266-4.416,2.297-4.814l0.887-0.133c0.354-0.266,0.354-1.281,0-1.549c-2.035,0.088-4.066,0.133-6.234,0.133
		c-2.121,0-4.285-0.045-6.715-0.133c-0.355,0.268-0.355,1.283,0,1.549l1.191,0.176c2.035,0.355,2.252,0.662,2.252,4.771v5.125
		c0,1.285,0,1.326-1.854,1.326h-9.191c-1.811,0-1.855-0.041-1.855-1.326v-5.125c0-4.109,0.264-4.416,2.164-4.814l0.928-0.133
		c0.354-0.266,0.354-1.281,0-1.549c-1.945,0.088-4.158,0.133-6.143,0.133c-2.119,0-4.418-0.045-6.582-0.133
		c-0.355,0.268-0.355,1.283,0,1.549l1.059,0.133c1.992,0.398,2.254,0.705,2.254,4.814v16.441c0,4.107-0.262,4.416-2.254,4.814
		l-1.059,0.131c-0.355,0.266-0.355,1.285,0,1.549c2.25-0.088,4.463-0.133,6.582-0.133c1.984,0,4.197,0.045,6.717,0.133
		c0.354-0.264,0.354-1.283,0-1.549l-1.412-0.176c-1.99-0.354-2.254-0.662-2.254-4.77v-6.367c0-1.234,0.045-1.279,1.855-1.279
		H313.893z"/>
	<path fill-rule="evenodd" clip-rule="evenodd" fill="#FFFFFF" d="M340.674,354.975c0-4.156,0.266-4.463,2.299-4.816l1.238-0.221
		c0.352-0.268,0.352-1.281,0-1.549c-2.387,0.092-4.596,0.133-6.676,0.133c-2.119,0-4.326-0.041-6.715-0.133
		c-0.354,0.268-0.354,1.281,0,1.549l1.236,0.221c2.035,0.354,2.301,0.66,2.301,4.816v16.26c0,4.158-0.266,4.461-2.301,4.816
		l-1.236,0.223c-0.354,0.264-0.354,1.281,0,1.545c2.389-0.086,4.596-0.131,6.715-0.131c2.08,0,4.246,0.045,6.629,0.131
		c0.355-0.264,0.398-1.281,0.047-1.545l-1.238-0.223c-2.033-0.355-2.299-0.658-2.299-4.816V354.975z"/>
	<path fill-rule="evenodd" clip-rule="evenodd" fill="#FFFFFF" d="M359.188,371.324c0,4.109-0.264,4.418-2.252,4.727l-1.988,0.223
		c-0.355,0.264-0.355,1.281,0,1.545c3.094-0.086,5.391-0.131,7.512-0.131c1.992,0,4.199,0.045,7.066,0.131
		c0.314-0.264,0.314-1.281,0-1.545l-1.768-0.223c-1.988-0.309-2.254-0.617-2.254-4.727v-19.486c0-1.15,0.135-1.285,1.197-1.285
		h2.652c3.311,0,3.932,2.082,4.68,4.906c0.223,0.355,1.418,0.27,1.637-0.133c-0.084-2.52,0.223-6.096,0.664-7.602
		c-0.088-0.131-0.398-0.307-0.664-0.307c-0.264,0-0.398,0.043-0.574,0.135c-0.398,0.928-1.062,0.969-3.977,0.969h-16.438
		c-3.357,0-3.492-0.176-3.711-0.928c-0.18-0.133-0.396-0.176-0.619-0.176s-0.439,0.09-0.619,0.221
		c-0.311,1.725-0.531,4.465-1.459,7.512c0.268,0.578,1.105,0.664,1.639,0.396c1.32-3.225,2.248-4.994,5.477-4.994h2.74
		c1.059,0,1.059,0.223,1.059,1.285V371.324z"/>
	<path fill-rule="evenodd" clip-rule="evenodd" fill="#FFFFFF" d="M389.982,352.277c0-1.635,0-1.723,1.459-1.723h3.535
		c2.162,0,3.488,0.533,4.328,1.369c0.578,0.619,1.191,1.945,1.682,3.494c0.441,0.396,1.461,0.307,1.635-0.178
		c-0.219-2.963-0.531-6.145-0.576-6.852c-0.57,0.088-3.09,0.133-5.918,0.133h-9.369c-2.119,0-4.285-0.045-6.367-0.133
		c-0.439,0.268-0.482,1.283-0.084,1.549l1.104,0.221c1.986,0.354,2.254,0.662,2.254,4.684v16.482c0,4.064-0.268,4.373-2.254,4.641
		l-2.078,0.309c-0.355,0.221-0.355,1.281,0,1.545c3.316-0.086,5.482-0.131,7.602-0.131h5.746c3.623,0,7.863,0.045,10.205,0.131
		c0.617-1.189,1.682-4.77,1.855-7.066c-0.174-0.533-1.281-0.711-1.635-0.223c-2.428,4.99-3.932,5.125-7.775,5.125
		c-3.225,0-4.064-0.352-4.643-1.15c-0.525-0.748-0.705-2.166-0.705-4.197v-5.256c0-1.326,0.045-1.371,1.238-1.371h3.047
		c2.299,0,2.787,0.352,3.27,2.475l0.221,1.104c0.309,0.398,1.416,0.354,1.635-0.045c-0.088-1.412-0.127-3.004-0.127-4.684
		c0-1.678,0.039-3.268,0.127-4.682c-0.219-0.398-1.326-0.398-1.635-0.047l-0.221,1.105c-0.482,2.121-0.971,2.43-3.27,2.43h-3.047
		c-1.193,0-1.238-0.086-1.238-1.326V352.277z"/>
	<path fill-rule="evenodd" clip-rule="evenodd" fill="#FFFFFF" d="M451.984,363.68c1.855,0,1.855,0.045,1.855,1.279v6.367
		c0,4.107-0.219,4.416-2.254,4.814l-0.969,0.131c-0.357,0.266-0.357,1.285,0,1.549c2.119-0.088,4.285-0.133,6.496-0.133
		c2.031,0,4.197,0.045,6.406,0.133c0.352-0.264,0.352-1.283,0-1.549l-1.059-0.176c-2.037-0.354-2.305-0.662-2.305-4.77v-16.441
		c0-4.109,0.268-4.416,2.305-4.814l0.877-0.133c0.357-0.266,0.357-1.281,0-1.549c-2.027,0.088-4.062,0.133-6.225,0.133
		c-2.123,0-4.285-0.045-6.715-0.133c-0.357,0.268-0.357,1.283,0,1.549l1.188,0.176c2.035,0.355,2.254,0.662,2.254,4.771v5.125
		c0,1.285,0,1.326-1.855,1.326h-9.191c-1.811,0-1.855-0.041-1.855-1.326v-5.125c0-4.109,0.266-4.416,2.166-4.814l0.928-0.133
		c0.355-0.266,0.355-1.281,0-1.549c-1.947,0.088-4.152,0.133-6.145,0.133c-2.119,0-4.42-0.045-6.582-0.133
		c-0.354,0.268-0.354,1.283,0,1.549l1.059,0.133c1.994,0.398,2.258,0.705,2.258,4.814v16.441c0,4.107-0.264,4.416-2.258,4.814
		l-1.059,0.131c-0.354,0.266-0.354,1.285,0,1.549c2.254-0.088,4.463-0.133,6.582-0.133c1.992,0,4.197,0.045,6.715,0.133
		c0.357-0.264,0.357-1.283,0-1.549l-1.41-0.176c-1.988-0.354-2.254-0.662-2.254-4.77v-6.367c0-1.234,0.045-1.279,1.855-1.279
		H451.984z"/>
	<path fill-rule="evenodd" clip-rule="evenodd" fill="#FFFFFF" d="M484.074,347.814c-9.24,0-15.777,6.76-15.777,15.51
		c0,9.236,6.449,15.07,15.332,15.07c9.502,0,15.953-5.789,15.953-15.422C499.582,354.002,493.262,347.814,484.074,347.814
		 M492.51,363.545c0,7.158-2.258,12.816-8.041,12.816c-7.207,0-9.104-8.662-9.104-14.051c0-7.381,2.916-12.465,8.348-12.465
		C489.197,349.846,492.51,355.99,492.51,363.545"/>
	<path fill-rule="evenodd" clip-rule="evenodd" fill="#FFFFFF" d="M508.381,365.934c0,4.818,0.973,8.086,3.27,9.984
		c2.385,1.945,5.393,2.479,8.748,2.479c3.584,0,6.809-1.107,8.754-3.186c2.428-2.695,2.824-6.492,2.824-10.65v-4.945
		c0-3.578,0.182-6.941,0.664-8.09c0.398-0.928,1.24-1.191,2.385-1.457l0.797-0.176c0.354-0.354,0.266-1.236,0-1.504
		c-1.68,0.088-3.314,0.133-4.949,0.133c-1.809,0-3.533-0.045-5.92-0.133c-0.27,0.268-0.354,1.15,0,1.504l1.191,0.221
		c1.195,0.221,2.166,0.484,2.564,1.412c0.486,1.148,0.666,4.512,0.666,8.09v5.344c0,6.055-1.725,11.006-7.383,11.006
		c-6.721,0-7.291-5.703-7.291-10.871v-10.205c0-4.113,0.262-4.422,2.254-4.82l1.059-0.176c0.354-0.266,0.354-1.236,0-1.504
		c-2.121,0.088-4.281,0.133-6.447,0.133c-2.123,0-4.332-0.045-6.455-0.133c-0.486,0.268-0.441,1.238-0.088,1.504l1.104,0.221
		c1.988,0.354,2.254,0.662,2.254,4.775V365.934z"/>
	<path fill-rule="evenodd" clip-rule="evenodd" fill="#FFFFFF" d="M559.564,369.426c0-4.865-3.488-7.426-6.232-8.883l-2.914-1.547
		c-2.211-1.148-4.021-3.004-4.021-5.039c0-2.209,1.588-4.109,4.51-4.109c3.18,0,5.078,3.227,5.834,5.479
		c0.395,0.443,1.502,0.398,1.721-0.131c0-2.963-0.445-5.348-0.797-6.32c-0.529-0.088-0.924-0.176-1.5-0.354
		c-1.77-0.529-3.58-0.705-5.039-0.705c-6.406,0-10.252,3.447-10.252,8.438c0.043,4.377,3.49,7.027,6.674,8.617
		c2.65,1.328,6.008,3.447,6.008,7.025c0,2.211-1.498,4.465-4.771,4.465c-3.758,0-6.717-4.062-7.602-6.936
		c-0.354-0.488-1.369-0.443-1.68,0.131c0,3.004,0.576,6.186,1.414,7.158c0.928,0.529,3.447,1.682,7.514,1.682
		C555.102,378.396,559.564,374.859,559.564,369.426"/>
	<path fill-rule="evenodd" clip-rule="evenodd" fill="#FFFFFF" d="M574.416,352.277c0-1.635,0-1.723,1.459-1.723h3.535
		c2.17,0,3.496,0.533,4.332,1.369c0.574,0.619,1.191,1.945,1.68,3.494c0.443,0.396,1.459,0.307,1.635-0.178
		c-0.221-2.963-0.531-6.145-0.574-6.852c-0.574,0.088-3.094,0.133-5.922,0.133h-9.369c-2.119,0-4.285-0.045-6.361-0.133
		c-0.445,0.268-0.488,1.283-0.088,1.549l1.104,0.221c1.988,0.354,2.254,0.662,2.254,4.684v16.482c0,4.064-0.266,4.373-2.254,4.641
		l-2.074,0.309c-0.357,0.221-0.357,1.281,0,1.545c3.311-0.086,5.477-0.131,7.602-0.131h5.74c3.627,0,7.863,0.045,10.209,0.131
		c0.617-1.189,1.678-4.77,1.859-7.066c-0.182-0.533-1.289-0.711-1.641-0.223c-2.432,4.99-3.934,5.125-7.773,5.125
		c-3.229,0-4.066-0.352-4.643-1.15c-0.529-0.748-0.709-2.166-0.709-4.197v-5.256c0-1.326,0.047-1.371,1.242-1.371h3.047
		c2.297,0,2.783,0.352,3.27,2.475l0.219,1.104c0.314,0.398,1.414,0.354,1.637-0.045c-0.088-1.412-0.131-3.004-0.131-4.684
		c0-1.678,0.043-3.268,0.131-4.682c-0.223-0.398-1.322-0.398-1.637-0.047l-0.219,1.105c-0.486,2.121-0.973,2.43-3.27,2.43h-3.047
		c-1.195,0-1.242-0.086-1.242-1.326V352.277z"/>
	<polygon fill-rule="evenodd" clip-rule="evenodd" fill="#ADAEC3" points="454.576,165.023 454.576,149.67 265.436,149.67 
		265.436,166.865 92.27,165.023 94.725,167.479 94.725,187.131 94.725,313.631 262.982,314.242 622.832,313.631 622.832,187.131 
		622.832,167.479 625.287,165.023 	"/>
	<polygon fill-rule="evenodd" clip-rule="evenodd" fill="#FFFFFF" points="454.576,314.242 454.576,163.197 627.697,163.197 
		622.838,169.148 622.832,185.572 622.832,313.621 	"/>
	<polygon fill="none" stroke="#FFFFFF" stroke-width="1.2358" stroke-miterlimit="3.864" points="454.576,314.242 454.576,163.197 
		627.697,163.197 622.838,169.148 622.832,185.572 622.832,313.621 	"/>
	<polygon fill-rule="evenodd" clip-rule="evenodd" fill="#5A5F81" points="584.758,206.781 604.41,206.781 604.41,233.799 
		606.867,233.799 606.867,241.168 582.303,241.168 582.303,233.799 584.758,233.799 	"/>
	<polygon fill-rule="evenodd" clip-rule="evenodd" fill="#5A5F81" points="543,206.781 562.652,206.781 562.652,233.799 
		565.107,233.799 565.107,241.168 540.547,241.168 540.547,233.799 543,233.799 	"/>
	<polygon fill-rule="evenodd" clip-rule="evenodd" fill="#5A5F81" points="502.475,206.781 522.123,206.781 522.123,233.799 
		524.578,233.799 524.578,241.168 500.014,241.168 500.014,233.799 502.475,233.799 	"/>
	<polygon fill-rule="evenodd" clip-rule="evenodd" fill="#5A5F81" points="461.943,206.781 481.592,206.781 481.592,233.799 
		484.053,233.799 484.053,241.168 459.486,241.168 459.486,233.799 461.943,233.799 	"/>
	<rect x="581.078" y="257.137" fill="#5A5F81" width="27.018" height="46.67"/>
	<rect x="540.547" y="257.137" fill="#5A5F81" width="27.014" height="46.67"/>
	<rect x="500.014" y="257.137" fill="#5A5F81" width="27.021" height="46.67"/>
	<rect x="459.482" y="257.137" fill="#5A5F81" width="27.021" height="46.67"/>
	<polygon fill-rule="evenodd" clip-rule="evenodd" fill="#FFFFFF" points="262.982,314.242 262.982,163.197 90.283,163.197 
		94.725,167.799 94.725,185.572 94.725,313.621 	"/>
	<polygon fill-rule="evenodd" clip-rule="evenodd" fill="#5A5F81" points="172.1,206.781 152.449,206.781 152.449,233.799 
		149.992,233.799 149.992,241.168 174.555,241.168 174.555,233.799 172.1,233.799 	"/>
	<polygon fill-rule="evenodd" clip-rule="evenodd" fill="#5A5F81" points="212.629,206.781 192.977,206.781 192.977,233.799 
		190.521,233.799 190.521,241.168 215.084,241.168 215.084,233.799 212.629,233.799 	"/>
	<polygon fill-rule="evenodd" clip-rule="evenodd" fill="#5A5F81" points="253.156,206.781 233.504,206.781 233.504,233.799 
		231.051,233.799 231.051,241.168 255.611,241.168 255.611,233.799 253.156,233.799 	"/>
	<rect x="105.777" y="258.361" fill="#5A5F81" width="27.018" height="46.67"/>
	
		<rect x="105.777" y="258.361" fill="none" stroke="#FFFFFF" stroke-width="1.2294" stroke-miterlimit="3.864" width="27.018" height="46.67"/>
	<rect x="146.307" y="258.361" fill="#5A5F81" width="27.021" height="46.67"/>
	
		<rect x="146.307" y="258.361" fill="none" stroke="#FFFFFF" stroke-width="1.2294" stroke-miterlimit="3.864" width="27.021" height="46.67"/>
	<rect x="186.838" y="258.361" fill="#5A5F81" width="27.018" height="46.67"/>
	
		<rect x="186.838" y="258.361" fill="none" stroke="#FFFFFF" stroke-width="1.2294" stroke-miterlimit="3.864" width="27.018" height="46.67"/>
	<rect x="228.592" y="257.137" fill="#5A5F81" width="27.02" height="46.67"/>
	<polygon fill-rule="evenodd" clip-rule="evenodd" fill="#5A5F81" points="130.342,206.781 110.689,206.781 110.689,233.799 
		108.234,233.799 108.234,241.168 132.797,241.168 132.797,233.799 130.342,233.799 	"/>
	<polygon fill-rule="evenodd" clip-rule="evenodd" fill="#FFFFFF" points="421.414,115.898 452.115,115.898 452.115,128.178 	"/>
	<polygon fill="none" stroke="#FFFFFF" stroke-width="1.2294" stroke-miterlimit="3.864" points="421.414,115.898 452.115,115.898 
		452.115,128.178 	"/>
</g>
<g>
	<defs>
		<polygon id="SVGID_1_" points="250.365,132.824 251.955,133.143 255.613,139.232 461.943,139.232 468.084,133.092 469.461,132.42 
			358.779,87.648 		"/>
	</defs>
	<clipPath id="SVGID_2_">
		<use xlink:href="#SVGID_1_"  overflow="visible"/>
	</clipPath>
	
		<linearGradient id="SVGID_3_" gradientUnits="userSpaceOnUse" x1="46.9785" y1="842.3008" x2="50.189" y2="842.3008" gradientTransform="matrix(0 16.0697 16.0697 0 -13175.6104 -667.2847)">
		<stop  offset="0" style="stop-color:#ADAEC3"/>
		<stop  offset="1" style="stop-color:#FFFFFF"/>
	</linearGradient>
	<rect x="250.365" y="87.648" clip-path="url(#SVGID_2_)" fill="url(#SVGID_3_)" width="219.096" height="51.584"/>
</g>
<g>
	<rect x="233.508" y="165.025" fill="#FFFFFF" width="25.791" height="12.279"/>
	<path fill="none" stroke="#000031" stroke-width="1.2294" stroke-miterlimit="3.864" d="M457.031,177.305h27.021v-12.279
		 M233.508,177.305h25.791v-12.279h-25.791V177.305z"/>
	<rect x="457.613" y="165.021" fill="#8E91AB" width="26.439" height="13.248"/>
	
		<rect x="457.613" y="165.021" fill="none" stroke="#FFFFFF" stroke-width="1.9292" stroke-miterlimit="3.864" width="26.439" height="13.248"/>
</g>
<g>
	<defs>
		<polygon id="SVGID_4_" points="111.918,205.553 111.918,232.572 109.463,232.572 109.463,239.941 134.023,239.941 
			134.023,232.572 131.568,232.572 131.568,205.553 		"/>
	</defs>
	<clipPath id="SVGID_5_">
		<use xlink:href="#SVGID_4_"  overflow="visible"/>
	</clipPath>
	
		<linearGradient id="SVGID_6_" gradientUnits="userSpaceOnUse" x1="59.8306" y1="831.3477" x2="63.0404" y2="831.3477" gradientTransform="matrix(-7.967 9.8384 9.8384 7.967 -7567.9297 -7005.0049)">
		<stop  offset="0" style="stop-color:#FFFFFF"/>
		<stop  offset="1" style="stop-color:#FFFFFF"/>
	</linearGradient>
	<polygon clip-path="url(#SVGID_5_)" fill="url(#SVGID_6_)" points="150.842,219.172 124.297,251.953 92.643,226.322 
		119.189,193.539 	"/>
</g>
<g>
	<rect x="115.604" y="209.238" fill="#5A5F81" width="12.279" height="24.562"/>
	<path fill="none" stroke="#FFFFFF" stroke-width="1.2294" stroke-miterlimit="3.864" d="M127.883,227.66h-12.279 M127.883,221.518
		h-12.279 M127.883,215.377h-12.279 M121.742,209.238v24.562 M115.604,233.801h12.279v-24.562h-12.279V233.801z"/>
</g>
<g>
	<defs>
		<polygon id="SVGID_7_" points="153.676,205.553 153.676,232.572 151.221,232.572 151.221,239.941 175.783,239.941 
			175.783,232.572 173.328,232.572 173.328,205.553 		"/>
	</defs>
	<clipPath id="SVGID_8_">
		<use xlink:href="#SVGID_7_"  overflow="visible"/>
	</clipPath>
	
		<linearGradient id="SVGID_9_" gradientUnits="userSpaceOnUse" x1="58.3989" y1="833.1113" x2="61.6087" y2="833.1113" gradientTransform="matrix(-7.9672 9.8386 9.8386 7.9672 -7555.1021 -7005.1714)">
		<stop  offset="0" style="stop-color:#FFFFFF"/>
		<stop  offset="1" style="stop-color:#FFFFFF"/>
	</linearGradient>
	<polygon clip-path="url(#SVGID_8_)" fill="url(#SVGID_9_)" points="192.602,219.172 166.055,251.953 134.402,226.322 
		160.949,193.539 	"/>
</g>
<g>
	<rect x="157.361" y="209.238" fill="#5A5F81" width="12.281" height="24.562"/>
	<path fill="none" stroke="#FFFFFF" stroke-width="1.2294" stroke-miterlimit="3.864" d="M169.643,227.66h-12.281 M169.643,221.518
		h-12.281 M169.643,215.377h-12.281 M163.502,209.238v24.562 M157.361,233.801h12.281v-24.562h-12.281V233.801z"/>
</g>
<g>
	<defs>
		<polygon id="SVGID_10_" points="194.205,205.553 194.205,232.572 191.748,232.572 191.748,239.941 216.312,239.941 
			216.312,232.572 213.855,232.572 213.855,205.553 		"/>
	</defs>
	<clipPath id="SVGID_11_">
		<use xlink:href="#SVGID_10_"  overflow="visible"/>
	</clipPath>
	
		<linearGradient id="SVGID_12_" gradientUnits="userSpaceOnUse" x1="57.0132" y1="834.8242" x2="60.223" y2="834.8242" gradientTransform="matrix(-7.9669 9.8383 9.8383 7.9669 -7542.2227 -7004.9229)">
		<stop  offset="0" style="stop-color:#FFFFFF"/>
		<stop  offset="1" style="stop-color:#FFFFFF"/>
	</linearGradient>
	<polygon clip-path="url(#SVGID_11_)" fill="url(#SVGID_12_)" points="233.129,219.172 206.584,251.953 174.932,226.322 
		201.477,193.539 	"/>
</g>
<g>
	<rect x="197.889" y="209.238" fill="#5A5F81" width="12.283" height="24.562"/>
	<path fill="none" stroke="#FFFFFF" stroke-width="1.2294" stroke-miterlimit="3.864" d="M210.172,227.66h-12.283 M210.172,221.518
		h-12.283 M210.172,215.377h-12.283 M204.031,209.238v24.562 M197.889,233.801h12.283v-24.562h-12.283V233.801z"/>
</g>
<g>
	<defs>
		<polygon id="SVGID_13_" points="234.732,205.553 234.732,232.572 232.273,232.572 232.273,239.941 256.84,239.941 256.84,232.572 
			254.385,232.572 254.385,205.553 		"/>
	</defs>
	<clipPath id="SVGID_14_">
		<use xlink:href="#SVGID_13_"  overflow="visible"/>
	</clipPath>
	
		<linearGradient id="SVGID_15_" gradientUnits="userSpaceOnUse" x1="55.627" y1="836.5371" x2="58.8367" y2="836.5371" gradientTransform="matrix(-7.9671 9.8385 9.8385 7.9671 -7529.7656 -7005.0889)">
		<stop  offset="0" style="stop-color:#FFFFFF"/>
		<stop  offset="1" style="stop-color:#FFFFFF"/>
	</linearGradient>
	<polygon clip-path="url(#SVGID_14_)" fill="url(#SVGID_15_)" points="273.658,219.172 247.111,251.955 215.457,226.32 
		242.002,193.537 	"/>
</g>
<g>
	<rect x="238.418" y="209.238" fill="#5A5F81" width="12.281" height="24.562"/>
	<path fill="none" stroke="#FFFFFF" stroke-width="1.2294" stroke-miterlimit="3.864" d="M250.703,227.66h-12.285 M250.703,221.518
		h-12.285 M250.703,215.377h-12.285 M244.559,209.238v24.562 M238.418,233.801h12.281v-24.562h-12.281V233.801z"/>
	<rect x="108.234" y="255.908" fill="#FFFFFF" width="27.02" height="46.67"/>
	
		<rect x="108.234" y="255.908" fill="none" stroke="#FFFFFF" stroke-width="1.2294" stroke-miterlimit="3.864" width="27.02" height="46.67"/>
	<rect x="114.373" y="262.047" fill="#5A5F81" width="14.74" height="34.389"/>
	<path fill="none" stroke="#FFFFFF" stroke-width="1.2294" stroke-miterlimit="3.864" d="M119.287,262.047v34.389 M124.201,262.047
		v34.389 M114.373,296.436h14.74v-34.389h-14.74V296.436z"/>
</g>
<g>
	<defs>
		<path id="SVGID_16_" d="M105.777,255.908h33.158c0,0-6.137-9.826-17.193-9.826C110.691,246.082,105.777,255.908,105.777,255.908"
			/>
	</defs>
	<clipPath id="SVGID_17_">
		<use xlink:href="#SVGID_16_"  overflow="visible"/>
	</clipPath>
	
		<linearGradient id="SVGID_18_" gradientUnits="userSpaceOnUse" x1="67.876" y1="824.5918" x2="71.0853" y2="824.5918" gradientTransform="matrix(-4.5343 5.4037 5.4037 4.5343 -4018.4888 -3863.3633)">
		<stop  offset="0" style="stop-color:#FFFFFF"/>
		<stop  offset="1" style="stop-color:#5A5F81"/>
	</linearGradient>
	<polygon clip-path="url(#SVGID_17_)" fill="url(#SVGID_18_)" points="143.773,250.141 125.236,272.234 100.939,251.848 
		119.479,229.754 	"/>
</g>
<g>
	<path fill="none" stroke="#FFFFFF" stroke-width="1.2294" stroke-miterlimit="3.864" d="M129.111,287.838h-14.738 M129.111,279.24
		h-14.738 M129.111,270.646h-14.738"/>
	<rect x="148.76" y="255.908" fill="#FFFFFF" width="27.023" height="46.67"/>
	
		<rect x="148.76" y="255.908" fill="none" stroke="#FFFFFF" stroke-width="1.2294" stroke-miterlimit="3.864" width="27.023" height="46.67"/>
	<rect x="154.904" y="262.047" fill="#5A5F81" width="14.738" height="34.389"/>
	<path fill="none" stroke="#FFFFFF" stroke-width="1.2294" stroke-miterlimit="3.864" d="M159.816,262.047v34.389 M164.727,262.047
		v34.389 M154.904,296.436h14.738v-34.389h-14.738V296.436z"/>
</g>
<g>
	<defs>
		<polygon id="SVGID_19_" points="146.307,255.908 179.465,255.908 162.275,246.082 		"/>
	</defs>
	<clipPath id="SVGID_20_">
		<use xlink:href="#SVGID_19_"  overflow="visible"/>
	</clipPath>
	
		<linearGradient id="SVGID_21_" gradientUnits="userSpaceOnUse" x1="66.1157" y1="826.6973" x2="69.3261" y2="826.6973" gradientTransform="matrix(-4.2683 5.0868 5.0868 4.2683 -3753.3252 -3622.1152)">
		<stop  offset="0" style="stop-color:#FFFFFF"/>
		<stop  offset="1" style="stop-color:#5A5F81"/>
	</linearGradient>
	<polygon clip-path="url(#SVGID_20_)" fill="url(#SVGID_21_)" points="184.303,250.141 165.766,272.234 141.467,251.848 
		160.006,229.754 	"/>
</g>
<g>
	<path fill="none" stroke="#FFFFFF" stroke-width="1.2294" stroke-miterlimit="3.864" d="M169.643,287.838h-14.736 M169.643,279.24
		h-14.736 M169.643,270.646h-14.736"/>
	<rect x="189.295" y="255.908" fill="#FFFFFF" width="27.018" height="46.67"/>
	
		<rect x="189.295" y="255.908" fill="none" stroke="#FFFFFF" stroke-width="1.2294" stroke-miterlimit="3.864" width="27.018" height="46.67"/>
	<rect x="195.434" y="262.047" fill="#5A5F81" width="14.74" height="34.389"/>
	<path fill="none" stroke="#FFFFFF" stroke-width="1.2294" stroke-miterlimit="3.864" d="M200.346,262.047v34.389 M205.256,262.047
		v34.389 M195.434,296.436h14.74v-34.389h-14.74V296.436z"/>
</g>
<g>
	<defs>
		<path id="SVGID_22_" d="M186.834,255.908h33.16c0,0-6.139-9.826-17.189-9.826C191.748,246.082,186.834,255.908,186.834,255.908"/>
	</defs>
	<clipPath id="SVGID_23_">
		<use xlink:href="#SVGID_22_"  overflow="visible"/>
	</clipPath>
	
		<linearGradient id="SVGID_24_" gradientUnits="userSpaceOnUse" x1="62.7871" y1="830.6523" x2="65.9964" y2="830.6523" gradientTransform="matrix(-4.5343 5.4038 5.4038 4.5343 -3993.2847 -3863.4258)">
		<stop  offset="0" style="stop-color:#FFFFFF"/>
		<stop  offset="1" style="stop-color:#5A5F81"/>
	</linearGradient>
	<polygon clip-path="url(#SVGID_23_)" fill="url(#SVGID_24_)" points="224.83,250.141 206.293,272.234 181.996,251.848 
		200.535,229.754 	"/>
</g>
<g>
	<path fill="none" stroke="#FFFFFF" stroke-width="1.2294" stroke-miterlimit="3.864" d="M210.172,287.838h-14.74 M210.172,279.24
		h-14.74 M210.172,270.646h-14.74"/>
	<rect x="229.822" y="255.908" fill="#FFFFFF" width="27.021" height="46.67"/>
	<rect x="235.963" y="262.047" fill="#5A5F81" width="14.736" height="34.389"/>
	<path fill="none" stroke="#FFFFFF" stroke-width="1.2294" stroke-miterlimit="3.864" d="M240.875,262.047v34.389 M245.787,262.047
		v34.389 M235.963,296.436h14.736v-34.389h-14.736V296.436z"/>
</g>
<g>
	<defs>
		<polygon id="SVGID_25_" points="227.363,255.908 260.525,255.908 243.334,246.082 		"/>
	</defs>
	<clipPath id="SVGID_26_">
		<use xlink:href="#SVGID_25_"  overflow="visible"/>
	</clipPath>
	
		<linearGradient id="SVGID_27_" gradientUnits="userSpaceOnUse" x1="60.7148" y1="833.1357" x2="63.9241" y2="833.1357" gradientTransform="matrix(-4.2683 5.0868 5.0868 4.2683 -3728.0732 -3622.1152)">
		<stop  offset="0" style="stop-color:#FFFFFF"/>
		<stop  offset="1" style="stop-color:#5A5F81"/>
	</linearGradient>
	<polygon clip-path="url(#SVGID_26_)" fill="url(#SVGID_27_)" points="265.363,250.141 246.824,272.236 222.525,251.848 
		241.064,229.752 	"/>
</g>
<g>
	<path fill="none" stroke="#FFFFFF" stroke-width="1.2294" stroke-miterlimit="3.864" d="M250.701,287.838h-14.738 M250.701,279.24
		h-14.738 M250.701,270.646h-14.738"/>
</g>
<g>
	<defs>
		<rect id="SVGID_28_" x="240.877" y="313.633" width="11.051" height="9.824"/>
	</defs>
	<clipPath id="SVGID_29_">
		<use xlink:href="#SVGID_28_"  overflow="visible"/>
	</clipPath>
	
		<linearGradient id="SVGID_30_" gradientUnits="userSpaceOnUse" x1="68.605" y1="816.7559" x2="71.8145" y2="816.7559" gradientTransform="matrix(0 3.0611 3.0611 0 -2253.7644 103.6279)">
		<stop  offset="0" style="stop-color:#8E91AB"/>
		<stop  offset="1" style="stop-color:#FFFFFF"/>
	</linearGradient>
	<rect x="240.877" y="313.633" clip-path="url(#SVGID_29_)" fill="url(#SVGID_30_)" width="11.051" height="9.824"/>
</g>
<g>
	
		<rect x="240.875" y="313.629" fill="none" stroke="#FFFFFF" stroke-width="1.2294" stroke-miterlimit="3.864" width="11.053" height="9.826"/>
</g>
<g>
	<defs>
		<rect id="SVGID_31_" x="201.574" y="313.633" width="31.934" height="9.824"/>
	</defs>
	<clipPath id="SVGID_32_">
		<use xlink:href="#SVGID_31_"  overflow="visible"/>
	</clipPath>
	
		<linearGradient id="SVGID_33_" gradientUnits="userSpaceOnUse" x1="68.605" y1="810.2646" x2="71.8145" y2="810.2646" gradientTransform="matrix(0 3.0611 3.0611 0 -2262.7566 103.6279)">
		<stop  offset="0" style="stop-color:#8E91AB"/>
		<stop  offset="1" style="stop-color:#FFFFFF"/>
	</linearGradient>
	<rect x="201.574" y="313.633" clip-path="url(#SVGID_32_)" fill="url(#SVGID_33_)" width="31.934" height="9.824"/>
</g>
<g>
	
		<rect x="201.574" y="313.629" fill="none" stroke="#FFFFFF" stroke-width="1.2294" stroke-miterlimit="3.864" width="31.934" height="9.826"/>
</g>
<g>
	<defs>
		<rect id="SVGID_34_" x="162.275" y="313.633" width="31.932" height="9.824"/>
	</defs>
	<clipPath id="SVGID_35_">
		<use xlink:href="#SVGID_34_"  overflow="visible"/>
	</clipPath>
	
		<linearGradient id="SVGID_36_" gradientUnits="userSpaceOnUse" x1="68.605" y1="801.4258" x2="71.8145" y2="801.4258" gradientTransform="matrix(0 3.0611 3.0611 0 -2275.0007 103.6279)">
		<stop  offset="0" style="stop-color:#8E91AB"/>
		<stop  offset="1" style="stop-color:#FFFFFF"/>
	</linearGradient>
	<rect x="162.275" y="313.633" clip-path="url(#SVGID_35_)" fill="url(#SVGID_36_)" width="31.932" height="9.824"/>
</g>
<g>
	
		<rect x="162.271" y="313.629" fill="none" stroke="#FFFFFF" stroke-width="1.2294" stroke-miterlimit="3.864" width="31.934" height="9.826"/>
</g>
<g>
	<defs>
		<rect id="SVGID_37_" x="122.973" y="313.633" width="31.932" height="9.824"/>
	</defs>
	<clipPath id="SVGID_38_">
		<use xlink:href="#SVGID_37_"  overflow="visible"/>
	</clipPath>
	
		<linearGradient id="SVGID_39_" gradientUnits="userSpaceOnUse" x1="68.605" y1="792.5859" x2="71.8145" y2="792.5859" gradientTransform="matrix(0 3.0611 3.0611 0 -2287.2429 103.6279)">
		<stop  offset="0" style="stop-color:#8E91AB"/>
		<stop  offset="1" style="stop-color:#FFFFFF"/>
	</linearGradient>
	<rect x="122.973" y="313.633" clip-path="url(#SVGID_38_)" fill="url(#SVGID_39_)" width="31.932" height="9.824"/>
</g>
<g>
	
		<rect x="122.973" y="313.629" fill="none" stroke="#FFFFFF" stroke-width="1.2294" stroke-miterlimit="3.864" width="31.932" height="9.826"/>
</g>
<g>
	<defs>
		<rect id="SVGID_40_" x="91.039" y="313.633" width="24.564" height="9.824"/>
	</defs>
	<clipPath id="SVGID_41_">
		<use xlink:href="#SVGID_40_"  overflow="visible"/>
	</clipPath>
	
		<linearGradient id="SVGID_42_" gradientUnits="userSpaceOnUse" x1="68.605" y1="784.5752" x2="71.8145" y2="784.5752" gradientTransform="matrix(0 3.0611 3.0611 0 -2298.3386 103.6279)">
		<stop  offset="0" style="stop-color:#8E91AB"/>
		<stop  offset="1" style="stop-color:#FFFFFF"/>
	</linearGradient>
	<rect x="91.039" y="313.633" clip-path="url(#SVGID_41_)" fill="url(#SVGID_42_)" width="24.564" height="9.824"/>
</g>
<g>
	
		<rect x="91.039" y="313.629" fill="none" stroke="#FFFFFF" stroke-width="1.2294" stroke-miterlimit="3.864" width="24.564" height="9.826"/>
</g>
<g>
	<defs>
		<polygon id="SVGID_43_" points="89.811,187.131 94.725,192.045 94.725,196.957 262.98,196.957 262.98,187.131 		"/>
	</defs>
	<clipPath id="SVGID_44_">
		<use xlink:href="#SVGID_43_"  overflow="visible"/>
	</clipPath>
	
		<linearGradient id="SVGID_45_" gradientUnits="userSpaceOnUse" x1="40.1538" y1="801.0098" x2="43.3638" y2="801.0098" gradientTransform="matrix(0 3.0611 3.0611 0 -2275.573 64.2178)">
		<stop  offset="0" style="stop-color:#5A5F81"/>
		<stop  offset="1" style="stop-color:#FFFFFF"/>
	</linearGradient>
	<rect x="89.811" y="187.131" clip-path="url(#SVGID_44_)" fill="url(#SVGID_45_)" width="173.17" height="9.826"/>
</g>
<g>
	<rect x="221.227" y="150.287" fill="#FFFFFF" width="17.191" height="14.738"/>
	
		<rect x="221.227" y="150.287" fill="none" stroke="#FFFFFF" stroke-width="1.2294" stroke-miterlimit="3.864" width="17.191" height="14.738"/>
	<rect x="232.861" y="165.021" fill-rule="evenodd" clip-rule="evenodd" fill="#8E91AB" width="27.664" height="13.248"/>
	
		<rect x="232.861" y="165.021" fill="none" stroke="#FFFFFF" stroke-width="1.9292" stroke-miterlimit="3.864" width="27.664" height="13.248"/>
	<rect x="192.977" y="165.025" fill="#8E91AB" width="25.789" height="12.279"/>
	
		<rect x="192.977" y="165.025" fill="none" stroke="#FFFFFF" stroke-width="1.2294" stroke-miterlimit="3.864" width="25.789" height="12.279"/>
	<rect x="154.904" y="165.025" fill="#8E91AB" width="25.793" height="12.279"/>
	
		<rect x="154.904" y="165.025" fill="none" stroke="#FFFFFF" stroke-width="1.2294" stroke-miterlimit="3.864" width="25.793" height="12.279"/>
	<rect x="116.832" y="165.025" fill="#8E91AB" width="25.793" height="12.279"/>
	<path fill="none" stroke="#FFFFFF" stroke-width="1.2294" stroke-miterlimit="3.864" d="M120.518,165.025v12.279 M124.201,165.025
		v12.279 M127.883,165.025v12.279 M131.568,165.025v12.279 M135.254,165.025v12.279 M138.936,165.025v12.279 M158.59,165.025v12.279
		 M162.271,165.025v12.279 M165.957,165.025v12.279 M169.643,165.025v12.279 M173.328,165.025v12.279 M177.012,165.025v12.279
		 M237.191,165.025v12.279 M240.875,165.025v12.279 M244.559,165.025v12.279 M248.244,165.025v12.279 M251.928,165.025v12.279
		 M255.613,165.025v12.279 M196.664,165.025v12.279 M200.346,165.025v12.279 M204.031,165.025v12.279 M207.715,165.025v12.279
		 M211.396,165.025v12.279 M215.084,165.025v12.279 M116.832,177.305h25.793v-12.279h-25.793V177.305z"/>
	<rect x="293.688" y="258.361" fill-rule="evenodd" clip-rule="evenodd" fill="#ADAEC3" width="27.766" height="44.432"/>
	
		<rect x="293.688" y="258.361" fill="none" stroke="#FFFFFF" stroke-width="1.2134" stroke-miterlimit="3.864" width="27.766" height="44.432"/>
	<path fill-rule="evenodd" clip-rule="evenodd" fill="#ADAEC3" d="M293.686,258.361h29.475c0,0-4.912-9.824-15.963-9.824
		C296.143,248.537,293.686,258.361,293.686,258.361"/>
	<path fill="none" stroke="#FFFFFF" stroke-width="1.2294" stroke-miterlimit="3.864" d="M293.686,258.361h29.475
		c0,0-4.912-9.824-15.963-9.824C296.143,248.537,293.686,258.361,293.686,258.361z"/>
	<rect x="398.562" y="258.021" fill-rule="evenodd" clip-rule="evenodd" fill="#ADAEC3" width="27.768" height="44.557"/>
	
		<rect x="398.562" y="258.021" fill="none" stroke="#FFFFFF" stroke-width="1.2166" stroke-miterlimit="3.864" width="27.768" height="44.557"/>
</g>
<g>
	<defs>
		<polygon id="SVGID_46_" points="274.037,154.582 274.037,177.305 291.232,203.098 422.641,203.098 445.975,167.479 
			444.75,154.582 		"/>
	</defs>
	<clipPath id="SVGID_47_">
		<use xlink:href="#SVGID_46_"  overflow="visible"/>
	</clipPath>
	
		<linearGradient id="SVGID_48_" gradientUnits="userSpaceOnUse" x1="49.5923" y1="842.3047" x2="52.8027" y2="842.3047" gradientTransform="matrix(0 15.1132 15.1132 0 -12369.918 -594.9183)">
		<stop  offset="0" style="stop-color:#FFFFFF"/>
		<stop  offset="1" style="stop-color:#5A5F81"/>
	</linearGradient>
	<rect x="274.037" y="154.582" clip-path="url(#SVGID_47_)" fill="url(#SVGID_48_)" width="171.938" height="48.516"/>
</g>
<g>
	<polygon fill-rule="evenodd" clip-rule="evenodd" fill="#FFFFFF" points="585.986,205.553 605.639,205.553 605.639,232.57 
		608.094,232.57 608.094,239.941 583.533,239.941 583.533,232.57 585.986,232.57 	"/>
	<rect x="589.67" y="209.238" fill="#5A5F81" width="12.281" height="24.562"/>
	<path fill="none" stroke="#FFFFFF" stroke-width="1.2294" stroke-miterlimit="3.864" d="M589.67,227.66h12.285 M589.67,221.518
		h12.285 M589.67,215.377h12.285 M595.814,209.238v24.562 M589.67,233.801h12.281v-24.562H589.67V233.801z"/>
	<polygon fill-rule="evenodd" clip-rule="evenodd" fill="#FFFFFF" points="544.229,205.553 563.881,205.553 563.881,232.57 
		566.338,232.57 566.338,239.941 541.771,239.941 541.771,232.57 544.229,232.57 	"/>
	<rect x="547.916" y="209.238" fill="#5A5F81" width="12.279" height="24.562"/>
	<path fill="none" stroke="#FFFFFF" stroke-width="1.2294" stroke-miterlimit="3.864" d="M547.916,227.66h12.279 M547.916,221.518
		h12.279 M547.916,215.377h12.279 M554.057,209.238v24.562 M547.916,233.801h12.279v-24.562h-12.279V233.801z"/>
	<polygon fill-rule="evenodd" clip-rule="evenodd" fill="#FFFFFF" points="503.701,205.553 523.352,205.553 523.352,232.57 
		525.807,232.57 525.807,239.941 501.242,239.941 501.242,232.57 503.701,232.57 	"/>
	<rect x="507.387" y="209.238" fill="#5A5F81" width="12.279" height="24.562"/>
	<path fill="none" stroke="#FFFFFF" stroke-width="1.2294" stroke-miterlimit="3.864" d="M507.387,227.66h12.275 M507.387,221.518
		h12.275 M507.387,215.377h12.275 M513.521,209.238v24.562 M507.387,233.801h12.279v-24.562h-12.279V233.801z"/>
	<polygon fill-rule="evenodd" clip-rule="evenodd" fill="#FFFFFF" points="463.17,205.553 482.82,205.553 482.82,232.57 
		485.281,232.57 485.281,239.941 460.715,239.941 460.715,232.57 463.17,232.57 	"/>
	<rect x="466.859" y="209.238" fill="#5A5F81" width="12.277" height="24.562"/>
	<path fill="none" stroke="#FFFFFF" stroke-width="1.2294" stroke-miterlimit="3.864" d="M466.859,227.66h12.277 M466.859,221.518
		h12.277 M466.859,215.377h12.277 M472.996,209.238v24.562 M466.859,233.801h12.277v-24.562h-12.277V233.801z"/>
	<rect x="582.303" y="255.908" fill="#FFFFFF" width="27.02" height="46.67"/>
	<rect x="588.445" y="262.047" fill="#5A5F81" width="14.736" height="34.389"/>
	<path fill="none" stroke="#FFFFFF" stroke-width="1.2294" stroke-miterlimit="3.864" d="M598.266,262.047v34.389 M593.357,262.047
		v34.389 M588.445,296.436h14.736v-34.389h-14.736V296.436z"/>
</g>
<g>
	<defs>
		<path id="SVGID_49_" d="M578.617,255.908h33.162c0,0-4.916-9.826-15.965-9.826C584.758,246.082,578.617,255.908,578.617,255.908"
			/>
	</defs>
	<clipPath id="SVGID_50_">
		<use xlink:href="#SVGID_49_"  overflow="visible"/>
	</clipPath>
	
		<linearGradient id="SVGID_51_" gradientUnits="userSpaceOnUse" x1="38.1436" y1="861.3496" x2="41.3541" y2="861.3496" gradientTransform="matrix(-4.1355 5.2932 5.2932 4.1355 -3799.7407 -3521.5176)">
		<stop  offset="0" style="stop-color:#8E91AB"/>
		<stop  offset="1" style="stop-color:#FFFFFF"/>
	</linearGradient>
	<polygon clip-path="url(#SVGID_50_)" fill="url(#SVGID_51_)" points="616.547,249.807 599.209,271.994 573.85,252.182 
		591.188,229.992 	"/>
</g>
<g>
	<path fill="none" stroke="#FFFFFF" stroke-width="1.2294" stroke-miterlimit="3.864" d="M588.445,287.838h14.736 M588.445,279.24
		h14.736 M588.445,270.646h14.736"/>
	<rect x="541.775" y="255.908" fill="#FFFFFF" width="27.021" height="46.67"/>
	<rect x="547.916" y="262.047" fill="#5A5F81" width="14.738" height="34.389"/>
	<path fill="none" stroke="#FFFFFF" stroke-width="1.2294" stroke-miterlimit="3.864" d="M557.74,262.047v34.389 M552.824,262.047
		v34.389 M547.916,296.436h14.738v-34.389h-14.738V296.436z"/>
</g>
<g>
	<defs>
		<polygon id="SVGID_52_" points="538.088,255.908 571.248,255.908 555.285,246.082 		"/>
	</defs>
	<clipPath id="SVGID_53_">
		<use xlink:href="#SVGID_52_"  overflow="visible"/>
	</clipPath>
	
		<linearGradient id="SVGID_54_" gradientUnits="userSpaceOnUse" x1="40.0229" y1="858.959" x2="43.2325" y2="858.959" gradientTransform="matrix(-3.9158 5.012 5.012 3.9158 -3587.4036 -3321.1553)">
		<stop  offset="0" style="stop-color:#8E91AB"/>
		<stop  offset="1" style="stop-color:#FFFFFF"/>
	</linearGradient>
	<polygon clip-path="url(#SVGID_53_)" fill="url(#SVGID_54_)" points="576.016,249.807 558.68,271.994 533.32,252.182 
		550.658,229.994 	"/>
</g>
<g>
	<path fill="none" stroke="#FFFFFF" stroke-width="1.2294" stroke-miterlimit="3.864" d="M547.916,287.838h14.738 M547.916,279.24
		h14.738 M547.916,270.646h14.738"/>
	<rect x="501.242" y="255.908" fill="#FFFFFF" width="27.021" height="46.67"/>
	<rect x="507.387" y="262.047" fill="#5A5F81" width="14.736" height="34.389"/>
	<path fill="none" stroke="#FFFFFF" stroke-width="1.2294" stroke-miterlimit="3.864" d="M517.211,262.047v34.389 M512.297,262.047
		v34.389 M507.387,296.436h14.736v-34.389h-14.736V296.436z"/>
</g>
<g>
	<defs>
		<path id="SVGID_55_" d="M497.561,255.908h33.158c0,0-4.912-9.826-15.965-9.826S497.561,255.908,497.561,255.908"/>
	</defs>
	<clipPath id="SVGID_56_">
		<use xlink:href="#SVGID_55_"  overflow="visible"/>
	</clipPath>
	
		<linearGradient id="SVGID_57_" gradientUnits="userSpaceOnUse" x1="43.2588" y1="854.8018" x2="46.4681" y2="854.8018" gradientTransform="matrix(-4.1356 5.2933 5.2933 4.1356 -3825.04 -3521.5723)">
		<stop  offset="0" style="stop-color:#8E91AB"/>
		<stop  offset="1" style="stop-color:#FFFFFF"/>
	</linearGradient>
	<polygon clip-path="url(#SVGID_56_)" fill="url(#SVGID_57_)" points="535.486,249.807 518.152,271.994 492.791,252.182 
		510.131,229.994 	"/>
</g>
<g>
	<path fill="none" stroke="#FFFFFF" stroke-width="1.2294" stroke-miterlimit="3.864" d="M507.385,287.838h14.736 M507.385,279.24
		h14.736 M507.385,270.646h14.736"/>
	<rect x="462.645" y="255.908" fill="#FFFFFF" width="25.092" height="46.67"/>
	<rect x="466.859" y="262.047" fill="#5A5F81" width="14.736" height="34.389"/>
	<path fill="none" stroke="#FFFFFF" stroke-width="1.2294" stroke-miterlimit="3.864" d="M476.68,262.047v34.389 M471.768,262.047
		v34.389 M466.859,296.436h14.736v-34.389h-14.736V296.436z"/>
</g>
<g>
	<defs>
		<polygon id="SVGID_58_" points="457.031,255.908 490.193,255.908 474.225,246.082 		"/>
	</defs>
	<clipPath id="SVGID_59_">
		<use xlink:href="#SVGID_58_"  overflow="visible"/>
	</clipPath>
	
		<linearGradient id="SVGID_60_" gradientUnits="userSpaceOnUse" x1="45.4243" y1="852.0459" x2="48.6342" y2="852.0459" gradientTransform="matrix(-3.9158 5.012 5.012 3.9158 -3612.6555 -3321.1553)">
		<stop  offset="0" style="stop-color:#8E91AB"/>
		<stop  offset="1" style="stop-color:#FFFFFF"/>
	</linearGradient>
	<polygon clip-path="url(#SVGID_59_)" fill="url(#SVGID_60_)" points="494.961,249.807 477.623,271.994 452.264,252.182 
		469.602,229.992 	"/>
</g>
<g>
	<path fill="none" stroke="#FFFFFF" stroke-width="1.2294" stroke-miterlimit="3.864" d="M466.855,287.838h14.74 M466.855,279.24
		h14.74 M466.855,270.646h14.74"/>
	<polygon fill-rule="evenodd" clip-rule="evenodd" fill="#FFFFFF" points="361.234,247.309 355.094,254.68 367.375,254.68 	"/>
	<polygon fill="none" stroke="#FFFFFF" stroke-width="1.2294" stroke-miterlimit="3.864" points="361.234,247.309 355.094,254.68 
		367.375,254.68 	"/>
	<polygon fill-rule="evenodd" clip-rule="evenodd" fill="#ADAEC3" points="296.143,206.781 315.793,206.781 315.793,241.168 
		296.143,241.168 296.143,233.799 	"/>
	<polygon fill="none" stroke="#FFFFFF" stroke-width="1.2294" stroke-miterlimit="3.864" points="296.143,206.781 315.793,206.781 
		315.793,241.168 296.143,241.168 296.143,233.799 	"/>
	<rect x="299.826" y="210.463" fill="#5A5F81" width="12.283" height="24.562"/>
	<path fill="none" stroke="#FFFFFF" stroke-width="1.2294" stroke-miterlimit="3.864" d="M299.826,228.885h12.283 M299.826,222.746
		h12.283 M299.826,216.605h12.283 M305.969,210.463v24.562 M299.826,235.025h12.283v-24.562h-12.283V235.025z"/>
	<rect x="401.764" y="206.779" fill-rule="evenodd" clip-rule="evenodd" fill="#ADAEC3" width="19.65" height="34.387"/>
	
		<rect x="401.764" y="206.779" fill="none" stroke="#FFFFFF" stroke-width="1.2294" stroke-miterlimit="3.864" width="19.65" height="34.387"/>
	<rect x="405.449" y="210.463" fill="#5A5F81" width="12.281" height="24.562"/>
	<path fill="none" stroke="#FFFFFF" stroke-width="1.2294" stroke-miterlimit="3.864" d="M405.449,228.885h12.281 M405.449,222.746
		h12.281 M405.449,216.605h12.281 M411.588,210.463v24.562 M405.449,235.025h12.281v-24.562h-12.281V235.025z"/>
	<polygon fill-rule="evenodd" clip-rule="evenodd" fill="#ADAEC3" points="351.408,206.781 371.062,206.781 371.062,241.168 
		351.408,241.168 351.408,233.799 	"/>
	<polygon fill="none" stroke="#FFFFFF" stroke-width="1.2294" stroke-miterlimit="3.864" points="351.408,206.781 371.062,206.781 
		371.062,241.168 351.408,241.168 351.408,233.799 	"/>
	<rect x="355.094" y="210.463" fill="#5A5F81" width="12.281" height="24.562"/>
	
		<rect x="355.094" y="210.463" fill="none" stroke="#FFFFFF" stroke-width="1.2294" stroke-miterlimit="3.864" width="12.281" height="24.562"/>
	
		<line fill="none" stroke="#000031" stroke-width="1.2294" stroke-miterlimit="3.864" x1="361.234" y1="210.465" x2="361.234" y2="235.027"/>
	<path fill="none" stroke="#FFFFFF" stroke-width="1.2294" stroke-miterlimit="3.864" d="M355.094,228.887h12.281 M355.094,222.748
		h12.281 M355.094,216.605h12.281"/>
	<polygon fill-rule="evenodd" clip-rule="evenodd" fill="#FFFFFF" points="274.035,309.33 274.035,300.121 277.719,300.121 
		277.719,309.947 	"/>
	<polygon fill="none" stroke="#FFFFFF" stroke-width="1.2294" stroke-miterlimit="3.864" points="274.035,309.33 274.035,300.121 
		277.719,300.121 277.719,309.947 	"/>
	<polygon fill-rule="evenodd" clip-rule="evenodd" fill="#FFFFFF" points="277.719,309.945 277.719,303.805 282.631,303.805 
		282.631,306.26 285.09,306.26 285.09,309.945 	"/>
	<polygon fill="none" stroke="#FFFFFF" stroke-width="1.2294" stroke-miterlimit="3.864" points="277.719,309.945 277.719,303.805 
		282.631,303.805 282.631,306.26 285.09,306.26 285.09,309.945 	"/>
	<rect x="285.09" y="306.262" fill-rule="evenodd" clip-rule="evenodd" fill="#FFFFFF" width="7.367" height="3.686"/>
	<path fill="none" stroke="#FFFFFF" stroke-width="1.2294" stroke-miterlimit="3.864" d="M428.785,194.498v108.078 M437.379,188.355
		h-3.682v114.221 M437.379,182.217l2.459,117.904 M444.75,180.99h-6.141v-2.459 M292.457,306.262h6.141v3.686 M291.232,203.098
		l3.682,103.164 M281.406,196.957h6.141l2.451,109.305 M281.406,189.586l1.225,116.676 M274.037,189.586h6.141v-2.455
		 M285.09,306.262h7.367v3.686h-7.367V306.262z"/>
	<rect x="434.922" y="300.121" fill="#FFFFFF" width="11.053" height="9.826"/>
	
		<rect x="434.922" y="300.121" fill="none" stroke="#FFFFFF" stroke-width="1.2294" stroke-miterlimit="3.864" width="11.053" height="9.826"/>
	<rect x="426.33" y="302.576" fill="#FFFFFF" width="8.596" height="7.367"/>
	
		<rect x="426.33" y="302.576" fill="none" stroke="#FFFFFF" stroke-width="1.2294" stroke-miterlimit="3.864" width="8.596" height="7.367"/>
</g>
<g>
	<defs>
		<rect id="SVGID_61_" x="260.525" y="139.229" width="197.732" height="22.109"/>
	</defs>
	<clipPath id="SVGID_62_">
		<use xlink:href="#SVGID_61_"  overflow="visible"/>
	</clipPath>
	
		<linearGradient id="SVGID_63_" gradientUnits="userSpaceOnUse" x1="42.9736" y1="842.2441" x2="46.1836" y2="842.2441" gradientTransform="matrix(0 6.8873 6.8873 0 -5441.3677 -156.74)">
		<stop  offset="0" style="stop-color:#ADAEC3"/>
		<stop  offset="1" style="stop-color:#FFFFFF"/>
	</linearGradient>
	<rect x="260.525" y="139.229" clip-path="url(#SVGID_62_)" fill="url(#SVGID_63_)" width="197.732" height="22.109"/>
</g>
<g>
	<polygon fill-rule="evenodd" clip-rule="evenodd" fill="#FFFFFF" points="469.125,132.76 358.777,87.65 358.777,95.02 
		454.574,133.09 	"/>
	<polygon fill="none" stroke="#FFFFFF" stroke-width="1.2294" stroke-miterlimit="3.864" points="469.125,132.76 358.777,87.65 
		358.777,95.02 454.574,133.09 	"/>
	<polygon fill-rule="evenodd" clip-rule="evenodd" fill="#FFFFFF" points="248.455,132.34 358.779,87.648 358.779,95.018 
		262.984,133.092 	"/>
	
		<line fill="none" stroke="#FFFFFF" stroke-width="1.2294" stroke-miterlimit="3.864" x1="358.779" y1="87.648" x2="358.779" y2="52.031"/>
	<path fill-rule="evenodd" clip-rule="evenodd" fill="#FFFFFF" d="M358.779,54.488c0,0,1.225,4.912,9.822,4.912
		s4.914-1.227,12.281,1.229l1.232,13.512c0,0-6.141-3.686-11.057-3.686c-4.908,0-6.141,3.686-12.279,1.229V54.488z"/>
	<path fill="none" stroke="#FFFFFF" stroke-width="1.2294" stroke-miterlimit="3.864" d="M358.779,54.488
		c0,0,1.225,4.912,9.822,4.912s4.914-1.227,12.281,1.229l1.232,13.512c0,0-6.141-3.686-11.057-3.686
		c-4.908,0-6.141,3.686-12.279,1.229V54.488z"/>
	<polygon fill-rule="evenodd" clip-rule="evenodd" fill="#FFFFFF" points="296.143,115.898 265.439,115.898 265.439,128.178 	"/>
	<path fill="none" stroke="#FFFFFF" stroke-width="1.2294" stroke-miterlimit="3.864" d="M383.344,298.893h-4.916v11.053
		 M340.355,301.348h4.916v8.598 M336.67,300.121h3.686v9.824 M296.143,115.898h-30.703v12.279L296.143,115.898z"/>
	<rect x="352.637" y="282.926" fill="#5A5F81" width="17.195" height="27.018"/>
	<path fill="none" stroke="#FFFFFF" stroke-width="1.2294" stroke-miterlimit="3.864" d="M340.357,203.098l3.682,98.25
		 M337.9,203.098l1.23,97.023 M380.883,203.098l-1.227,95.793 M352.637,296.436h17.195 M361.234,282.926v27.021 M352.637,309.943
		h17.195v-27.018h-17.195V309.943z"/>
	<path fill-rule="evenodd" clip-rule="evenodd" fill="#FFFFFF" d="M346.496,274.328c0,0,0-14.736,14.736-14.736
		c14.742,0,15.967,14.736,15.967,14.736H346.496z"/>
	<path fill="none" stroke="#FFFFFF" stroke-width="1.2294" stroke-miterlimit="3.864" d="M346.496,274.328
		c0,0,0-14.736,14.736-14.736c14.742,0,15.967,14.736,15.967,14.736H346.496z"/>
	<rect x="355.094" y="254.68" fill-rule="evenodd" clip-rule="evenodd" fill="#ADAEC3" width="6.141" height="17.193"/>
	
		<rect x="355.094" y="254.68" fill="none" stroke="#FFFFFF" stroke-width="1.2294" stroke-miterlimit="3.864" width="6.141" height="17.193"/>
	<rect x="361.234" y="254.68" fill="#5A5F81" width="6.141" height="17.193"/>
	
		<rect x="361.234" y="254.68" fill="none" stroke="#FFFFFF" stroke-width="1.2294" stroke-miterlimit="3.864" width="6.141" height="17.193"/>
	<rect x="346.496" y="274.328" fill="#FFFFFF" width="30.703" height="4.916"/>
	<path fill="none" stroke="#FFFFFF" stroke-width="1.2294" stroke-miterlimit="3.864" d="M377.199,279.24v17.195h2.457
		 M346.496,279.24v17.195h-2.457 M346.496,279.244h30.703v-4.916h-30.703V279.244z"/>
	<rect x="405.449" y="264.504" fill="#5A5F81" width="14.74" height="34.387"/>
	<path fill="none" stroke="#FFFFFF" stroke-width="1.2294" stroke-miterlimit="3.864" d="M405.449,290.295h14.74 M405.449,281.699
		h14.74 M405.449,273.1h14.74 M415.273,264.504v34.387 M410.359,264.504v34.387 M405.449,298.891h14.74v-34.387h-14.74V298.891z"/>
	<rect x="301.055" y="264.504" fill="#5A5F81" width="14.738" height="34.387"/>
	<path fill="none" stroke="#FFFFFF" stroke-width="1.2294" stroke-miterlimit="3.864" d="M301.055,290.295h14.738 M301.055,281.699
		h14.738 M301.055,273.1h14.738 M310.881,264.504v34.387 M305.969,264.504v34.387 M301.055,298.891h14.738v-34.387h-14.738V298.891z
		"/>
</g>
<g>
	<defs>
		<rect id="SVGID_64_" x="465.627" y="313.633" width="11.053" height="9.824"/>
	</defs>
	<clipPath id="SVGID_65_">
		<use xlink:href="#SVGID_64_"  overflow="visible"/>
	</clipPath>
	
		<linearGradient id="SVGID_66_" gradientUnits="userSpaceOnUse" x1="68.605" y1="867.3047" x2="71.8145" y2="867.3047" gradientTransform="matrix(0 3.0611 3.0611 0 -2183.7488 103.6279)">
		<stop  offset="0" style="stop-color:#8E91AB"/>
		<stop  offset="1" style="stop-color:#FFFFFF"/>
	</linearGradient>
	<rect x="465.627" y="313.633" clip-path="url(#SVGID_65_)" fill="url(#SVGID_66_)" width="11.053" height="9.824"/>
</g>
<g>
	
		<rect x="465.627" y="313.629" fill="none" stroke="#FFFFFF" stroke-width="1.2294" stroke-miterlimit="3.864" width="11.057" height="9.826"/>
	<rect x="476.68" y="312.402" fill-rule="evenodd" clip-rule="evenodd" fill="#ADAEC3" width="7.369" height="12.281"/>
	
		<rect x="476.68" y="312.402" fill="none" stroke="#FFFFFF" stroke-width="1.2294" stroke-miterlimit="3.864" width="7.369" height="12.281"/>
	<rect x="515.982" y="312.402" fill-rule="evenodd" clip-rule="evenodd" fill="#ADAEC3" width="7.369" height="12.281"/>
	
		<rect x="515.982" y="312.402" fill="none" stroke="#FFFFFF" stroke-width="1.2294" stroke-miterlimit="3.864" width="7.369" height="12.281"/>
	<rect x="555.285" y="312.402" fill-rule="evenodd" clip-rule="evenodd" fill="#ADAEC3" width="7.367" height="12.281"/>
	
		<rect x="555.285" y="312.402" fill="none" stroke="#FFFFFF" stroke-width="1.2294" stroke-miterlimit="3.864" width="7.367" height="12.281"/>
	<rect x="594.586" y="312.402" fill-rule="evenodd" clip-rule="evenodd" fill="#ADAEC3" width="7.369" height="12.281"/>
	
		<rect x="594.586" y="312.402" fill="none" stroke="#FFFFFF" stroke-width="1.2294" stroke-miterlimit="3.864" width="7.369" height="12.281"/>
</g>
<g>
	<defs>
		<rect id="SVGID_67_" x="484.049" y="313.633" width="31.934" height="9.824"/>
	</defs>
	<clipPath id="SVGID_68_">
		<use xlink:href="#SVGID_67_"  overflow="visible"/>
	</clipPath>
	
		<linearGradient id="SVGID_69_" gradientUnits="userSpaceOnUse" x1="68.605" y1="873.7959" x2="71.8145" y2="873.7959" gradientTransform="matrix(0 3.0611 3.0611 0 -2174.7566 103.6279)">
		<stop  offset="0" style="stop-color:#8E91AB"/>
		<stop  offset="1" style="stop-color:#FFFFFF"/>
	</linearGradient>
	<rect x="484.049" y="313.633" clip-path="url(#SVGID_68_)" fill="url(#SVGID_69_)" width="31.934" height="9.824"/>
</g>
<g>
	
		<rect x="484.053" y="313.629" fill="none" stroke="#FFFFFF" stroke-width="1.2294" stroke-miterlimit="3.864" width="31.934" height="9.826"/>
</g>
<g>
	<defs>
		<rect id="SVGID_70_" x="523.352" y="313.633" width="31.934" height="9.824"/>
	</defs>
	<clipPath id="SVGID_71_">
		<use xlink:href="#SVGID_70_"  overflow="visible"/>
	</clipPath>
	
		<linearGradient id="SVGID_72_" gradientUnits="userSpaceOnUse" x1="68.605" y1="882.6348" x2="71.8145" y2="882.6348" gradientTransform="matrix(0 3.0611 3.0611 0 -2162.5125 103.6279)">
		<stop  offset="0" style="stop-color:#8E91AB"/>
		<stop  offset="1" style="stop-color:#FFFFFF"/>
	</linearGradient>
	<rect x="523.352" y="313.633" clip-path="url(#SVGID_71_)" fill="url(#SVGID_72_)" width="31.934" height="9.824"/>
</g>
<g>
	
		<rect x="523.352" y="313.629" fill="none" stroke="#FFFFFF" stroke-width="1.2294" stroke-miterlimit="3.864" width="31.934" height="9.826"/>
</g>
<g>
	<defs>
		<rect id="SVGID_73_" x="562.654" y="313.633" width="31.934" height="9.824"/>
	</defs>
	<clipPath id="SVGID_74_">
		<use xlink:href="#SVGID_73_"  overflow="visible"/>
	</clipPath>
	
		<linearGradient id="SVGID_75_" gradientUnits="userSpaceOnUse" x1="68.605" y1="891.4746" x2="71.8145" y2="891.4746" gradientTransform="matrix(0 3.0611 3.0611 0 -2150.2683 103.6279)">
		<stop  offset="0" style="stop-color:#8E91AB"/>
		<stop  offset="1" style="stop-color:#FFFFFF"/>
	</linearGradient>
	<rect x="562.654" y="313.633" clip-path="url(#SVGID_74_)" fill="url(#SVGID_75_)" width="31.934" height="9.824"/>
</g>
<g>
	
		<rect x="562.654" y="313.629" fill="none" stroke="#FFFFFF" stroke-width="1.2294" stroke-miterlimit="3.864" width="31.934" height="9.826"/>
</g>
<g>
	<defs>
		<rect id="SVGID_76_" x="601.955" y="313.633" width="24.561" height="9.824"/>
	</defs>
	<clipPath id="SVGID_77_">
		<use xlink:href="#SVGID_76_"  overflow="visible"/>
	</clipPath>
	
		<linearGradient id="SVGID_78_" gradientUnits="userSpaceOnUse" x1="68.605" y1="899.4854" x2="71.8145" y2="899.4854" gradientTransform="matrix(0 3.0611 3.0611 0 -2139.1746 103.6279)">
		<stop  offset="0" style="stop-color:#8E91AB"/>
		<stop  offset="1" style="stop-color:#FFFFFF"/>
	</linearGradient>
	<rect x="601.955" y="313.633" clip-path="url(#SVGID_77_)" fill="url(#SVGID_78_)" width="24.561" height="9.824"/>
</g>
<g>
	
		<rect x="601.955" y="313.629" fill="none" stroke="#FFFFFF" stroke-width="1.2294" stroke-miterlimit="3.864" width="24.561" height="9.826"/>
</g>
<g>
	<defs>
		<polygon id="SVGID_79_" points="457.031,187.131 458.258,196.957 623.83,196.957 623.646,192.045 628.375,187.131 		"/>
	</defs>
	<clipPath id="SVGID_80_">
		<use xlink:href="#SVGID_79_"  overflow="visible"/>
	</clipPath>
	
		<linearGradient id="SVGID_81_" gradientUnits="userSpaceOnUse" x1="40.1538" y1="883.3965" x2="43.3638" y2="883.3965" gradientTransform="matrix(0 3.0611 3.0611 0 -2161.4578 64.2178)">
		<stop  offset="0" style="stop-color:#5A5F81"/>
		<stop  offset="1" style="stop-color:#FFFFFF"/>
	</linearGradient>
	<rect x="457.031" y="187.131" clip-path="url(#SVGID_80_)" fill="url(#SVGID_81_)" width="171.344" height="9.826"/>
</g>
<g>
	<rect x="479.137" y="150.287" fill="#FFFFFF" width="17.197" height="14.738"/>
	
		<rect x="479.137" y="150.287" fill="none" stroke="#FFFFFF" stroke-width="1.2294" stroke-miterlimit="3.864" width="17.197" height="14.738"/>
	<rect x="498.789" y="165.025" fill="#8E91AB" width="25.789" height="12.279"/>
	
		<rect x="498.789" y="165.025" fill="none" stroke="#FFFFFF" stroke-width="1.2294" stroke-miterlimit="3.864" width="25.789" height="12.279"/>
	<rect x="536.859" y="165.025" fill="#8E91AB" width="25.793" height="12.279"/>
	
		<rect x="536.859" y="165.025" fill="none" stroke="#FFFFFF" stroke-width="1.2294" stroke-miterlimit="3.864" width="25.793" height="12.279"/>
	<rect x="574.938" y="165.025" fill="#8E91AB" width="25.785" height="12.279"/>
	<path fill="none" stroke="#FFFFFF" stroke-width="1.2294" stroke-miterlimit="3.864" d="M361.234,252.188v-77.955 M597.039,165.025
		v12.279 M593.357,165.025v12.279 M589.67,165.025v12.279 M585.986,165.025v12.279 M582.303,165.025v12.279 M578.617,165.025v12.279
		 M558.969,165.025v12.279 M555.285,165.025v12.279 M551.6,165.025v12.279 M547.916,165.025v12.279 M544.229,165.025v12.279
		 M540.547,165.025v12.279 M480.369,165.025v12.279 M476.68,165.025v12.279 M472.996,165.025v12.279 M469.312,165.025v12.279
		 M465.627,165.025v12.279 M461.943,165.025v12.279 M520.898,165.025v12.279 M517.211,165.025v12.279 M513.521,165.025v12.279
		 M509.842,165.025v12.279 M506.154,165.025v12.279 M502.475,165.025v12.279 M574.938,177.305h25.785v-12.279h-25.785V177.305z"/>
	<polygon fill-rule="evenodd" clip-rule="evenodd" fill="#FFFFFF" points="249.398,132.932 468.348,133.094 462.947,140.129 
		253.469,140.129 	"/>
	<polygon fill="none" stroke="#FFFFFF" stroke-width="1.3739" stroke-miterlimit="3.864" points="249.398,132.932 468.348,133.094 
		462.947,140.129 253.469,140.129 	"/>
	<polygon fill-rule="evenodd" clip-rule="evenodd" fill="#FFFFFF" points="249.516,133.092 358.779,87.648 358.779,95.018 
		262.982,133.092 	"/>
	<path fill="none" stroke="#FFFFFF" stroke-width="1.2294" stroke-miterlimit="3.864" d="M430.014,174.236
		c0,0-14.74,52.162-70.006,75.207 M290.002,174.236c0,0,14.736,52.162,70.006,75.207 M249.516,133.092l109.264-45.443v7.369
		l-95.797,38.074H249.516z"/>
	<path fill-rule="evenodd" clip-rule="evenodd" fill="#FFFFFF" d="M274.035,166.25c3.684,1.229,6.141,0,6.141-2.455
		s-2.457-2.455-2.457-2.455h-18.42c0,0-2.457,0-2.457,2.455s2.457,3.684,6.141,2.455H274.035z"/>
	<path fill="none" stroke="#FFFFFF" stroke-width="1.2294" stroke-miterlimit="3.864" d="M274.035,166.25
		c3.684,1.229,6.141,0,6.141-2.455s-2.457-2.455-2.457-2.455h-18.42c0,0-2.457,0-2.457,2.455s2.457,3.684,6.141,2.455H274.035z"/>
	<path fill-rule="evenodd" clip-rule="evenodd" fill="#FFFFFF" d="M334.215,166.25c3.686,1.229,6.141,0,6.141-2.455
		s-2.455-2.455-2.455-2.455h-18.422c0,0-2.459,0-2.459,2.455s2.459,3.684,6.141,2.455H334.215z"/>
	<path fill="none" stroke="#FFFFFF" stroke-width="1.2294" stroke-miterlimit="3.864" d="M334.215,166.25
		c3.686,1.229,6.141,0,6.141-2.455s-2.455-2.455-2.455-2.455h-18.422c0,0-2.459,0-2.459,2.455s2.459,3.684,6.141,2.455H334.215z"/>
	<path fill-rule="evenodd" clip-rule="evenodd" fill="#FFFFFF" d="M385.799,166.25c-3.684,1.229-6.143,0-6.143-2.455
		s2.459-2.455,2.459-2.455h18.422c0,0,2.451,0,2.451,2.455s-2.451,3.684-6.137,2.455H385.799z"/>
	<path fill="none" stroke="#FFFFFF" stroke-width="1.2294" stroke-miterlimit="3.864" d="M385.799,166.25
		c-3.684,1.229-6.143,0-6.143-2.455s2.459-2.455,2.459-2.455h18.422c0,0,2.451,0,2.451,2.455s-2.451,3.684-6.137,2.455H385.799z"/>
	<path fill-rule="evenodd" clip-rule="evenodd" fill="#FFFFFF" d="M445.979,166.25c-3.684,1.229-6.141,0-6.141-2.455
		s2.457-2.455,2.457-2.455h18.422c0,0,2.453,0,2.453,2.455s-2.453,3.684-6.139,2.455H445.979z"/>
	<path fill="none" stroke="#FFFFFF" stroke-width="1.2294" stroke-miterlimit="3.864" d="M445.979,166.25
		c-3.684,1.229-6.141,0-6.141-2.455s2.457-2.455,2.457-2.455h18.422c0,0,2.453,0,2.453,2.455s-2.453,3.684-6.139,2.455H445.979z"/>
	<polygon fill-rule="evenodd" clip-rule="evenodd" fill="#FFFFFF" points="274.035,166.25 262.982,166.25 258.07,296.436 
		272.809,296.436 	"/>
	<polygon fill-rule="evenodd" clip-rule="evenodd" fill="#FFFFFF" points="334.215,166.25 323.16,166.25 320.707,296.436 
		335.445,296.436 	"/>
	<polygon fill-rule="evenodd" clip-rule="evenodd" fill="#FFFFFF" points="385.799,166.25 396.852,166.25 399.309,296.436 
		384.566,296.436 	"/>
	<rect x="319.475" y="296.436" fill="#FFFFFF" width="17.195" height="13.508"/>
	
		<rect x="319.475" y="296.436" fill="none" stroke="#FFFFFF" stroke-width="1.2294" stroke-miterlimit="3.864" width="17.195" height="13.508"/>
	<rect x="383.34" y="296.436" fill="#FFFFFF" width="17.195" height="13.508"/>
	
		<rect x="383.34" y="296.436" fill="none" stroke="#FFFFFF" stroke-width="1.2294" stroke-miterlimit="3.864" width="17.195" height="13.508"/>
	<rect x="445.975" y="296.436" fill="#FFFFFF" width="17.195" height="13.508"/>
	
		<rect x="445.975" y="296.436" fill="none" stroke="#FFFFFF" stroke-width="1.2294" stroke-miterlimit="3.864" width="17.195" height="13.508"/>
	<rect x="256.84" y="296.436" fill="#FFFFFF" width="17.193" height="13.508"/>
	
		<rect x="256.84" y="296.436" fill="none" stroke="#FFFFFF" stroke-width="1.2294" stroke-miterlimit="3.864" width="17.193" height="13.508"/>
</g>
<g>
	<defs>
		<rect id="SVGID_82_" x="250.703" y="309.947" width="214.924" height="16.58"/>
	</defs>
	<clipPath id="SVGID_83_">
		<use xlink:href="#SVGID_82_"  overflow="visible"/>
	</clipPath>
	
		<linearGradient id="SVGID_84_" gradientUnits="userSpaceOnUse" x1="62.1025" y1="842.0605" x2="65.312" y2="842.0605" gradientTransform="matrix(0 5.1654 5.1654 0 -3991.4429 -10.8364)">
		<stop  offset="0" style="stop-color:#8E91AB"/>
		<stop  offset="1" style="stop-color:#FFFFFF"/>
	</linearGradient>
	<rect x="250.703" y="309.947" clip-path="url(#SVGID_83_)" fill="url(#SVGID_84_)" width="214.924" height="16.578"/>
</g>
<g>
	
		<rect x="250.699" y="309.943" fill="none" stroke="#FFFFFF" stroke-width="1.2294" stroke-miterlimit="3.864" width="214.924" height="16.584"/>
	<rect x="233.508" y="312.402" fill="#8E91AB" width="7.369" height="12.281"/>
	
		<rect x="233.508" y="312.402" fill="none" stroke="#FFFFFF" stroke-width="1.2294" stroke-miterlimit="3.864" width="7.369" height="12.281"/>
	<rect x="194.205" y="312.402" fill="#8E91AB" width="7.369" height="12.281"/>
	
		<rect x="194.205" y="312.402" fill="none" stroke="#FFFFFF" stroke-width="1.2294" stroke-miterlimit="3.864" width="7.369" height="12.281"/>
	<rect x="154.904" y="312.402" fill="#8E91AB" width="7.371" height="12.281"/>
	
		<rect x="154.904" y="312.402" fill="none" stroke="#FFFFFF" stroke-width="1.2294" stroke-miterlimit="3.864" width="7.371" height="12.281"/>
	<rect x="115.604" y="312.402" fill="#8E91AB" width="7.369" height="12.281"/>
	
		<rect x="115.604" y="312.402" fill="none" stroke="#FFFFFF" stroke-width="1.2294" stroke-miterlimit="3.864" width="7.369" height="12.281"/>
	<path fill-rule="evenodd" clip-rule="evenodd" fill="#ADAEC3" d="M398.885,258.361h29.48c0,0-4.916-9.824-15.967-9.824
		C401.344,248.537,398.885,258.361,398.885,258.361"/>
	<path fill="none" stroke="#FFFFFF" stroke-width="1.2294" stroke-miterlimit="3.864" d="M398.885,258.361h29.48
		c0,0-4.916-9.824-15.967-9.824C401.344,248.537,398.885,258.361,398.885,258.361z"/>
</g>
<g>
	<defs>
		<polygon id="SVGID_85_" points="539.08,255.908 572.238,255.908 555.041,246.082 		"/>
	</defs>
	<clipPath id="SVGID_86_">
		<use xlink:href="#SVGID_85_"  overflow="visible"/>
	</clipPath>
	
		<linearGradient id="SVGID_87_" gradientUnits="userSpaceOnUse" x1="39.9409" y1="857.8936" x2="43.1517" y2="857.8936" gradientTransform="matrix(-4.2683 5.0868 5.0868 4.2683 -3630.9648 -3622.1152)">
		<stop  offset="0" style="stop-color:#FFFFFF"/>
		<stop  offset="1" style="stop-color:#5A5F81"/>
	</linearGradient>
	<polygon clip-path="url(#SVGID_86_)" fill="url(#SVGID_87_)" points="577.078,250.141 558.539,272.236 534.238,251.848 
		552.777,229.752 	"/>
</g>
<g>
	<defs>
		<polygon id="SVGID_88_" points="458.721,255.908 491.879,255.908 474.684,246.082 		"/>
	</defs>
	<clipPath id="SVGID_89_">
		<use xlink:href="#SVGID_88_"  overflow="visible"/>
	</clipPath>
	
		<linearGradient id="SVGID_90_" gradientUnits="userSpaceOnUse" x1="45.2969" y1="851.5117" x2="48.5069" y2="851.5117" gradientTransform="matrix(-4.2683 5.0868 5.0868 4.2683 -3655.999 -3622.1152)">
		<stop  offset="0" style="stop-color:#FFFFFF"/>
		<stop  offset="1" style="stop-color:#5A5F81"/>
	</linearGradient>
	<polygon clip-path="url(#SVGID_89_)" fill="url(#SVGID_90_)" points="496.717,250.141 478.178,272.234 453.881,251.848 
		472.42,229.754 	"/>
</g>
<g>
	<defs>
		<path id="SVGID_91_" d="M497.848,255.908h33.16c0,0-6.141-9.826-17.191-9.826C502.76,246.082,497.848,255.908,497.848,255.908"/>
	</defs>
	<clipPath id="SVGID_92_">
		<use xlink:href="#SVGID_91_"  overflow="visible"/>
	</clipPath>
	
		<linearGradient id="SVGID_93_" gradientUnits="userSpaceOnUse" x1="43.2798" y1="853.9043" x2="46.4907" y2="853.9043" gradientTransform="matrix(-4.5343 5.4038 5.4038 4.5343 -3896.3711 -3863.3906)">
		<stop  offset="0" style="stop-color:#FFFFFF"/>
		<stop  offset="1" style="stop-color:#5A5F81"/>
	</linearGradient>
	<polygon clip-path="url(#SVGID_92_)" fill="url(#SVGID_93_)" points="535.848,250.141 517.309,272.234 493.012,251.848 
		511.551,229.754 	"/>
</g>
<g>
	<defs>
		<path id="SVGID_94_" d="M578.949,255.908h33.16c0,0-6.143-9.826-17.191-9.826C583.859,246.082,578.949,255.908,578.949,255.908"/>
	</defs>
	<clipPath id="SVGID_95_">
		<use xlink:href="#SVGID_94_"  overflow="visible"/>
	</clipPath>
	
		<linearGradient id="SVGID_96_" gradientUnits="userSpaceOnUse" x1="38.1919" y1="859.9688" x2="41.4016" y2="859.9688" gradientTransform="matrix(-4.5341 5.4036 5.4036 4.5341 -3870.9595 -3863.2524)">
		<stop  offset="0" style="stop-color:#FFFFFF"/>
		<stop  offset="1" style="stop-color:#5A5F81"/>
	</linearGradient>
	<polygon clip-path="url(#SVGID_95_)" fill="url(#SVGID_96_)" points="616.945,250.141 598.406,272.234 574.109,251.848 
		592.648,229.754 	"/>
</g>
<g>
	<polygon fill-rule="evenodd" clip-rule="evenodd" fill="#FFFFFF" points="445.979,166.25 457.031,166.25 461.943,296.436 
		447.207,296.436 	"/>
</g>
</svg>
